<svg width="48" height="48" viewBox="0 0 48 48" fill="none" xmlns="http://www.w3.org/2000/svg">
<circle cx="24" cy="24" r="24" fill="#FAE9E9"/>
<path fill-rule="evenodd" clip-rule="evenodd" d="M26.92 14.7868C24.967 14.7377 23.033 14.7377 21.08 14.7868L21.0218 14.7883C19.497 14.8265 18.27 14.8574 17.2867 15.0286C16.2572 15.2079 15.4205 15.5518 14.7136 16.2613C14.0097 16.9679 13.6676 17.7926 13.4918 18.8054C13.3243 19.7698 13.2988 20.9668 13.2672 22.4496L13.2659 22.5084C13.2447 23.5047 13.2447 24.4952 13.2659 25.4916L13.2672 25.5503C13.2988 27.0332 13.3243 28.2302 13.4918 29.1946C13.6676 30.2074 14.0097 31.0321 14.7136 31.7386C15.4205 32.4482 16.2572 32.7921 17.2867 32.9714C18.27 33.1426 19.497 33.1734 21.0218 33.2117L21.08 33.2132C23.033 33.2622 24.967 33.2622 26.92 33.2132L26.9782 33.2117C28.503 33.1734 29.73 33.1426 30.7133 32.9714C31.7428 32.7921 32.5795 32.4482 33.2864 31.7386C33.9903 31.0321 34.3324 30.2074 34.5082 29.1946C34.6757 28.2302 34.7012 27.0332 34.7328 25.5503L34.7341 25.4916C34.7553 24.4952 34.7553 23.5047 34.7341 22.5084L34.7328 22.4496C34.7012 20.9668 34.6757 19.7698 34.5082 18.8054C34.3324 17.7926 33.9903 16.9679 33.2864 16.2613C32.5795 15.5518 31.7428 15.2079 30.7133 15.0286C29.73 14.8574 28.503 14.8266 26.9782 14.7883L26.92 14.7868ZM19.3818 19.8545C19.0253 19.6437 18.5653 19.7619 18.3545 20.1184C18.1437 20.475 18.2619 20.9349 18.6184 21.1457L21.5604 22.8851C22.4313 23.4 23.1827 23.7501 24.0001 23.7501C24.8175 23.7501 25.569 23.4 26.4398 22.8851L29.3818 21.1457C29.7384 20.9349 29.8565 20.475 29.6457 20.1184C29.4349 19.7619 28.975 19.6437 28.6184 19.8545L25.6764 21.594C24.832 22.0931 24.3831 22.2501 24.0001 22.2501C23.6171 22.2501 23.1682 22.0931 22.3238 21.594L19.3818 19.8545Z" fill="url(#paint0_linear_72_6779)"/>
<defs>
<linearGradient id="paint0_linear_72_6779" x1="13.25" y1="24" x2="34.75" y2="24" gradientUnits="userSpaceOnUse">
<stop stop-color="#00B8DB"/>
<stop offset="1" stop-color="#155DFC"/>
</linearGradient>
</defs>
</svg>
