<svg width="48" height="48" viewBox="0 0 48 48" fill="none" xmlns="http://www.w3.org/2000/svg">
<circle cx="24" cy="24" r="24" fill="#FAE9E9"/>
<path d="M29.6252 25.674L32.2682 27.25C32.8142 27.576 33.0961 28.21 32.9711 28.834C32.4601 31.393 29.8902 33.033 27.3732 32.342C21.4342 30.712 16.7951 26.087 15.1591 20.135C14.4671 17.617 16.1052 15.045 18.6652 14.533L18.682 14.53C19.307 14.405 19.9442 14.688 20.2692 15.237L21.8322 17.876C22.3882 18.815 22.112 20.024 21.203 20.628L19.5421 21.733C20.7141 24.54 22.9541 26.789 25.7531 27.959L26.8681 26.294C27.4771 25.387 28.6872 25.115 29.6252 25.674Z" fill="url(#paint0_linear_72_6788)"/>
<defs>
<linearGradient id="paint0_linear_72_6788" x1="15" y1="23.5006" x2="33.0004" y2="23.5006" gradientUnits="userSpaceOnUse">
<stop stop-color="#00B8DB"/>
<stop offset="1" stop-color="#155DFC"/>
</linearGradient>
</defs>
</svg>
