<svg width="48" height="48" viewBox="0 0 48 48" fill="none" xmlns="http://www.w3.org/2000/svg">
<circle cx="24" cy="24" r="24" fill="#FAE9E9"/>
<path d="M25.1691 13.3828C19.9301 13.3828 15.668 17.6449 15.668 22.8839C15.668 28.4538 20.8422 31.8719 24.2659 34.1332L24.8583 34.5267C24.9522 34.5893 25.0607 34.6206 25.168 34.6206C25.2753 34.6206 25.3837 34.5893 25.4776 34.5267L26.07 34.1332C29.4938 31.8719 34.668 28.4538 34.668 22.8839C34.6702 17.6449 30.4081 13.3828 25.1691 13.3828ZM25.1691 25.6784C23.6254 25.6784 22.3746 24.4276 22.3746 22.8839C22.3746 21.3403 23.6254 20.0895 25.1691 20.0895C26.7127 20.0895 27.9635 21.3403 27.9635 22.8839C27.9635 24.4276 26.7127 25.6784 25.1691 25.6784Z" fill="url(#paint0_linear_72_6796)"/>
<defs>
<linearGradient id="paint0_linear_72_6796" x1="15.668" y1="24.0017" x2="34.668" y2="24.0017" gradientUnits="userSpaceOnUse">
<stop stop-color="#00B8DB"/>
<stop offset="1" stop-color="#155DFC"/>
</linearGradient>
</defs>
</svg>
