<svg width="28" height="28" viewBox="0 0 28 28" fill="none" xmlns="http://www.w3.org/2000/svg">
<path d="M3.49096 19.066C3.6625 19.4987 3.7007 19.9728 3.60062 20.4275L2.35812 24.2658C2.31809 24.4604 2.32844 24.6621 2.3882 24.8516C2.44795 25.0412 2.55513 25.2123 2.69957 25.3488C2.84401 25.4853 3.02092 25.5826 3.21352 25.6316C3.40613 25.6805 3.60805 25.6794 3.80012 25.6285L7.78196 24.4641C8.21096 24.379 8.65524 24.4162 9.06412 24.5715C11.5554 25.7349 14.3776 25.981 17.0326 25.2665C19.6877 24.5519 22.0051 22.9226 23.5759 20.6659C25.1468 18.4092 25.8701 15.6703 25.6183 12.9323C25.3665 10.1943 24.1558 7.63317 22.1997 5.70086C20.2436 3.76854 17.6679 2.58917 14.9271 2.37084C12.1862 2.15251 9.45628 2.90924 7.21897 4.50752C4.98166 6.1058 3.38074 8.44293 2.69867 11.1065C2.01659 13.7701 2.29719 16.5891 3.49096 19.066Z" stroke="white" stroke-width="2.33333" stroke-linecap="round" stroke-linejoin="round"/>
</svg>
