<svg width="186" height="159" viewBox="0 0 186 159" fill="none" xmlns="http://www.w3.org/2000/svg">
<path d="M-7.17877 151.73L-7.1672 151.717L121.77 3.3051C121.769 3.30578 121.771 3.30406 121.77 3.3051C124.092 0.647002 128.097 0.394233 130.708 2.66092C133.387 4.98615 133.655 8.97731 131.39 11.5718L131.379 11.5846L2.44191 159.997C2.44034 159.999 2.44347 159.995 2.44191 159.997C0.119205 162.653 -3.88575 162.907 -6.49662 160.641C-9.17496 158.316 -9.44347 154.325 -7.17877 151.73ZM143.781 72.4531C142.579 69.1876 144.256 65.569 147.518 64.3712C150.792 63.204 154.424 64.9022 155.624 68.1674L178.747 131.039C179.951 134.314 178.262 137.944 174.98 139.131L111.988 161.923C108.708 163.11 105.058 161.411 103.854 158.137C102.65 154.863 104.339 151.232 107.62 150.045L157.902 131.852L164.687 129.398L162.2 122.624L143.781 72.4531ZM-50.7689 24.1706L12.2233 1.37865C15.5044 0.191445 19.1534 1.88978 20.3577 5.16457C21.5621 8.43932 19.8726 12.0692 16.5916 13.2563L-33.6898 31.4493L-40.4824 33.907L-37.9853 40.6852L-19.5122 90.8282C-18.3106 94.1021 -19.9985 97.7332 -23.2782 98.9199C-26.5594 100.107 -30.2084 98.409 -31.4126 95.1339L-54.535 32.2622C-55.7395 28.9877 -54.0501 25.3581 -50.7689 24.1706Z" fill="white" fill-opacity="0.1"/>
<path d="M121.77 3.3051L-7.1672 151.717L-7.17878 151.73C-9.44348 154.325 -9.17496 158.316 -6.49663 160.641C-3.88576 162.907 0.119206 162.653 2.44191 159.997M121.77 3.3051C121.771 3.30406 121.769 3.30578 121.77 3.3051ZM121.77 3.3051C124.092 0.646998 128.097 0.394232 130.708 2.66092C133.387 4.98615 133.655 8.97731 131.39 11.5718L131.379 11.5846L2.44191 159.997M2.44191 159.997C2.44034 159.999 2.44348 159.995 2.44191 159.997ZM178.747 131.039L155.624 68.1674C154.424 64.9022 150.792 63.204 147.518 64.3712C144.256 65.569 142.579 69.1876 143.781 72.4531L162.2 122.624L164.687 129.398L157.902 131.852L107.62 150.045C104.339 151.232 102.65 154.863 103.854 158.137C105.058 161.411 108.708 163.11 111.988 161.923L174.98 139.131C178.262 137.944 179.951 134.314 178.747 131.039ZM178.747 131.039L185.535 128.583M-50.7689 24.1706L-53.2609 17.3948M-50.7689 24.1706L12.2233 1.37865C15.5044 0.191445 19.1534 1.88978 20.3577 5.16457C21.5621 8.43932 19.8727 12.0692 16.5916 13.2563L-33.6898 31.4493L-40.4824 33.907L-37.9853 40.6852L-19.5122 90.8282M-50.7689 24.1706C-54.0501 25.3581 -55.7395 28.9877 -54.535 32.2622M-19.5122 90.8282C-19.5118 90.8292 -19.5126 90.8272 -19.5122 90.8282ZM-19.5122 90.8282C-18.3106 94.1021 -19.9985 97.7332 -23.2782 98.9198C-26.5594 100.107 -30.2084 98.409 -31.4126 95.1339L-54.535 32.2622M-54.535 32.2622L-61.3238 34.7185" stroke="url(#paint0_linear_14_3009)" stroke-opacity="0.08" stroke-width="2"/>
<defs>
<linearGradient id="paint0_linear_14_3009" x1="-57.3014" y1="26.076" x2="181.513" y2="137.226" gradientUnits="userSpaceOnUse">
<stop stop-color="#00B8DB"/>
<stop offset="1" stop-color="#155DFC"/>
</linearGradient>
</defs>
</svg>
