<svg width="22" height="22" viewBox="0 0 22 22" fill="none" xmlns="http://www.w3.org/2000/svg">
<rect width="22" height="22" rx="11" fill="url(#paint0_linear_14_3014)"/>
<g clip-path="url(#clip0_14_3014)">
<path d="M9.34105 15.1564L11.9063 6.69043C11.9528 6.53857 12.1194 6.45261 12.2765 6.49531C12.4376 6.53911 12.5287 6.69615 12.4834 6.84434L9.91815 15.3103C9.87159 15.4621 9.70505 15.5481 9.54799 15.5055C9.38686 15.4617 9.29576 15.3046 9.34105 15.1564ZM14.2284 9.08286C14.1118 8.97293 14.1115 8.79427 14.2274 8.68395C14.3444 8.57466 14.5339 8.57498 14.6505 8.6849L16.895 10.8014C17.012 10.9116 17.012 11.091 16.895 11.2012L14.6505 13.3177C14.5336 13.428 14.3433 13.428 14.2264 13.3177C14.1095 13.2075 14.1095 13.0281 14.2264 12.9179L16.0181 11.2285L16.2599 11.0005L16.0182 10.7724L14.2284 9.08286ZM4.92941 10.7995L7.174 8.68301C7.29091 8.57277 7.48113 8.57277 7.59804 8.68301C7.71496 8.79325 7.71496 8.97262 7.59804 9.08286L5.80638 10.7723L5.56434 11.0005L5.80651 11.2286L7.59804 12.916C7.71482 13.0263 7.71491 13.2056 7.59804 13.3158C7.48113 13.4261 7.29091 13.4261 7.174 13.3158L4.92941 11.1993C4.81249 11.0891 4.81249 10.9098 4.92941 10.7995Z" fill="white" fill-opacity="0.2"/>
<path d="M16.895 10.8014L14.6505 8.6849C14.5339 8.57498 14.3444 8.57466 14.2274 8.68395C14.1115 8.79427 14.1118 8.97293 14.2284 9.08286L16.0182 10.7724L16.2599 11.0005L16.0181 11.2285L14.2264 12.9179C14.1095 13.0281 14.1095 13.2075 14.2264 13.3177C14.3433 13.428 14.5336 13.428 14.6505 13.3177L16.895 11.2012C17.012 11.091 17.012 10.9116 16.895 10.8014ZM16.895 10.8014L17.1369 10.5733M4.92941 10.7995L4.6875 10.5714M4.92941 10.7995L7.174 8.68301C7.29091 8.57277 7.48113 8.57277 7.59804 8.68301C7.71496 8.79325 7.71496 8.97262 7.59804 9.08286L5.80638 10.7723L5.56434 11.0005L5.80651 11.2286L7.59804 12.916C7.71482 13.0263 7.71491 13.2056 7.59804 13.3158C7.48113 13.4261 7.29091 13.4261 7.174 13.3158L4.92941 11.1993M4.92941 10.7995C4.81249 10.9098 4.81249 11.0891 4.92941 11.1993M4.92941 11.1993L4.6875 11.4274M9.34105 15.1564L11.9063 6.69043C11.9528 6.53857 12.1194 6.45261 12.2765 6.49531C12.4376 6.53911 12.5287 6.69615 12.4834 6.84434L9.91815 15.3103C9.87159 15.4621 9.70505 15.5481 9.54799 15.5055C9.38686 15.4617 9.29576 15.3046 9.34105 15.1564Z" stroke="white" stroke-width="0.6"/>
</g>
<defs>
<linearGradient id="paint0_linear_14_3014" x1="0" y1="11" x2="22" y2="11" gradientUnits="userSpaceOnUse">
<stop stop-color="#00B8DB"/>
<stop offset="1" stop-color="#155DFC"/>
</linearGradient>
<clipPath id="clip0_14_3014">
<rect width="13" height="10" fill="white" transform="translate(4.5 6)"/>
</clipPath>
</defs>
</svg>
