<svg width="67" height="60" viewBox="0 0 67 60" fill="none" xmlns="http://www.w3.org/2000/svg">
<path d="M14.6157 0C15.89 0.000237441 16.9233 1.03329 16.9233 2.30762C16.9233 3.58197 15.89 4.615 14.6157 4.61523C12.3958 4.61523 10.0581 6.80599 10.0581 10.2197C10.0581 10.5489 10.0594 10.875 10.0601 11.1982C10.0726 17.631 10.0823 22.9216 5.05615 28.7148C4.46858 29.3921 4.46857 30.6079 5.05615 31.2852C7.69036 34.3214 8.98361 37.2088 9.57764 40.3125C10.0785 42.9295 10.0701 45.6946 10.061 48.5996C10.0598 48.9906 10.0581 49.3843 10.0581 49.7803C10.0581 53.194 12.3958 55.3848 14.6157 55.3848C15.89 55.385 16.9233 56.418 16.9233 57.6924C16.9233 58.9667 15.89 59.9998 14.6157 60C9.25332 60 5.4429 55.1059 5.44287 49.7803C5.44287 49.3732 5.444 48.9786 5.44482 48.5957C5.45128 45.6139 5.4559 43.3295 5.04443 41.1797C4.60583 38.8882 3.68017 36.742 1.56982 34.3096C-0.523121 31.897 -0.523126 28.103 1.56982 25.6904C5.44894 21.2194 5.44668 17.5319 5.44287 10.8643C5.44275 10.6525 5.44287 10.4376 5.44287 10.2197C5.4429 4.89407 9.25332 0 14.6157 0ZM51.5376 0C56.9 5.64322e-05 60.7094 4.8941 60.7095 10.2197C60.7095 10.6268 60.7093 11.0214 60.7085 11.4043C60.702 14.3861 60.6964 16.6705 61.1079 18.8203C61.5465 21.1118 62.4722 23.258 64.5825 25.6904C66.6757 28.1031 66.6757 31.8969 64.5825 34.3096C62.4722 36.742 61.5465 38.8882 61.1079 41.1797C60.6964 43.3295 60.702 45.6139 60.7085 48.5957C60.7093 48.9786 60.7095 49.3732 60.7095 49.7803C60.7094 55.1059 56.9 59.9999 51.5376 60C50.2631 60 49.23 58.9669 49.23 57.6924C49.23 56.4179 50.2631 55.3848 51.5376 55.3848C53.7575 55.3847 56.0942 53.194 56.0942 49.7803C56.0942 49.3843 56.0935 48.9906 56.0923 48.5996C56.0832 45.6946 56.0739 42.9295 56.5747 40.3125C57.1687 37.2089 58.4621 34.3213 61.0962 31.2852C61.6838 30.6079 61.6838 29.3921 61.0962 28.7148C58.4621 25.6787 57.1687 22.7911 56.5747 19.6875C56.0739 17.0705 56.0832 14.3054 56.0923 11.4004C56.0935 11.0094 56.0942 10.6157 56.0942 10.2197C56.0942 6.80604 53.7575 4.6153 51.5376 4.61523C50.2631 4.61523 49.23 3.58212 49.23 2.30762C49.23 1.03315 50.2631 0 51.5376 0ZM20.7944 26.9199C22.4936 26.9199 23.8713 28.297 23.8716 29.9961C23.8716 31.6954 22.4937 33.0732 20.7944 33.0732H20.7671C19.0679 33.0731 17.6899 31.6954 17.6899 29.9961C17.6902 28.297 19.068 26.92 20.7671 26.9199H20.7944ZM33.0884 26.9199C34.7875 26.9199 36.1653 28.297 36.1655 29.9961C36.1655 31.6954 34.7877 33.0732 33.0884 33.0732H33.061C31.3617 33.0732 29.9839 31.6954 29.9839 29.9961C29.9841 28.297 31.3619 26.9199 33.061 26.9199H33.0884ZM45.3823 26.9199C47.0814 26.92 48.4582 28.2971 48.4585 29.9961C48.4585 31.6954 47.0815 33.0731 45.3823 33.0732H45.354C43.6549 33.073 42.2778 31.6953 42.2778 29.9961C42.2781 28.2971 43.6551 26.9202 45.354 26.9199H45.3823Z" fill="#E0DCD4"/>
</svg>
