<svg width="24" height="24" viewBox="0 0 24 24" fill="none" xmlns="http://www.w3.org/2000/svg">
<path d="M12.0244 5.06639e-07C14.5802 -1.53479e-05 16.588 -0.000746756 18.1553 0.209961C19.7614 0.425896 21.0359 0.877676 22.0371 1.87891C23.0383 2.88014 23.4901 4.15464 23.7061 5.76074C23.9168 7.32805 23.916 9.33583 23.916 11.8916V12.0244C23.916 14.5802 23.9168 16.588 23.7061 18.1553C23.4901 19.7614 23.0383 21.0359 22.0371 22.0371C21.0359 23.0383 19.7614 23.4901 18.1553 23.7061C16.588 23.9168 14.5802 23.916 12.0244 23.916H11.8916C10.6959 23.916 9.62004 23.9151 8.65332 23.8936C8.59046 23.9079 8.52522 23.916 8.45801 23.916C8.37417 23.916 8.29356 23.9029 8.2168 23.8809C7.29777 23.8526 6.48252 23.8031 5.76074 23.7061C4.15464 23.4901 2.88014 23.0383 1.87891 22.0371C0.877676 21.0359 0.425896 19.7614 0.209961 18.1553C-0.000746757 16.588 -1.53479e-05 14.5802 5.06639e-07 12.0244V11.8916C-1.53479e-05 9.33583 -0.000746631 7.32805 0.209961 5.76074C0.425896 4.15464 0.877676 2.88014 1.87891 1.87891C2.88014 0.877676 4.15464 0.425896 5.76074 0.209961C7.32805 -0.000746631 9.33583 -1.53479e-05 11.8916 5.06639e-07H12.0244ZM9.33301 22.1553C10.1164 22.1653 10.9865 22.166 11.958 22.166C14.5949 22.166 16.4847 22.1649 17.9219 21.9717C19.3339 21.7818 20.1779 21.4217 20.7998 20.7998C21.4217 20.1779 21.7818 19.3339 21.9717 17.9219C22.1649 16.4847 22.166 14.5949 22.166 11.958C22.166 10.9865 22.1653 10.1164 22.1553 9.33301H9.33301V22.1553ZM1.76074 9.33301C1.75076 10.1164 1.75 10.9865 1.75 11.958C1.75 14.5949 1.75115 16.4847 1.94434 17.9219C2.13418 19.3339 2.49433 20.1779 3.11621 20.7998C3.7381 21.4217 4.5821 21.7818 5.99414 21.9717C6.47044 22.0357 6.99658 22.0766 7.58301 22.1055V9.33301H1.76074ZM15.458 16.916C15.9411 16.916 16.3328 17.3079 16.333 17.791C16.333 18.2743 15.9413 18.666 15.458 18.666H13.125C12.6418 18.666 12.25 18.2743 12.25 17.791C12.2502 17.3079 12.6419 16.916 13.125 16.916H15.458ZM17.791 12.25C18.2743 12.25 18.666 12.6418 18.666 13.125C18.6658 13.6081 18.2742 14 17.791 14H13.125C12.6419 14 12.2502 13.6081 12.25 13.125C12.25 12.6418 12.6418 12.25 13.125 12.25H17.791ZM11.958 1.75C9.32109 1.75 7.43132 1.75115 5.99414 1.94434C4.5821 2.13418 3.7381 2.49433 3.11621 3.11621C2.49433 3.7381 2.13418 4.5821 1.94434 5.99414C1.88031 6.47044 1.83944 6.99658 1.81055 7.58301H22.1055C22.0766 6.99658 22.0357 6.47044 21.9717 5.99414C21.7818 4.5821 21.4217 3.7381 20.7998 3.11621C20.1779 2.49433 19.3339 2.13418 17.9219 1.94434C16.4847 1.75115 14.5949 1.75 11.958 1.75ZM6.13477 3.79102C6.7791 3.79102 7.30176 4.31368 7.30176 4.95801C7.30176 5.60234 6.7791 6.125 6.13477 6.125H6.125C5.48067 6.125 4.95801 5.60234 4.95801 4.95801C4.95801 4.31368 5.48067 3.79102 6.125 3.79102H6.13477ZM10.8018 3.79102C11.4461 3.79102 11.9688 4.31368 11.9688 4.95801C11.9688 5.60234 11.4461 6.125 10.8018 6.125H10.791C10.1468 6.12482 9.625 5.60223 9.625 4.95801C9.625 4.31378 10.1468 3.79119 10.791 3.79102H10.8018Z" fill="white"/>
</svg>
