<svg width="28" height="28" viewBox="0 0 28 28" fill="none" xmlns="http://www.w3.org/2000/svg">
<path d="M4.66668 16.3332C4.4459 16.334 4.22945 16.2721 4.04246 16.1547C3.85547 16.0373 3.70562 15.8693 3.61032 15.6702C3.51502 15.471 3.47819 15.2489 3.50409 15.0297C3.53 14.8104 3.61759 14.603 3.75668 14.4316L15.3067 2.53157C15.3933 2.43157 15.5114 2.36399 15.6415 2.33993C15.7716 2.31587 15.906 2.33675 16.0227 2.39916C16.1394 2.46157 16.2314 2.56178 16.2836 2.68336C16.3358 2.80494 16.3451 2.94066 16.31 3.06824L14.07 10.0916C14.004 10.2683 13.9818 10.4585 14.0054 10.6457C14.029 10.833 14.0976 11.0117 14.2054 11.1666C14.3133 11.3214 14.4571 11.4478 14.6245 11.5349C14.7919 11.622 14.978 11.6672 15.1667 11.6666H23.3333C23.5541 11.6658 23.7706 11.7277 23.9576 11.8451C24.1446 11.9625 24.2944 12.1305 24.3897 12.3296C24.485 12.5288 24.5218 12.7509 24.4959 12.9701C24.47 13.1894 24.3824 13.3968 24.2433 13.5682L12.6933 25.4682C12.6067 25.5682 12.4886 25.6358 12.3585 25.6599C12.2284 25.6839 12.094 25.6631 11.9773 25.6006C11.8607 25.5382 11.7687 25.438 11.7165 25.3164C11.6642 25.1949 11.6549 25.0591 11.69 24.9316L13.93 17.9082C13.9961 17.7315 14.0182 17.5413 13.9947 17.3541C13.9711 17.1668 13.9024 16.9881 13.7946 16.8332C13.6867 16.6784 13.5429 16.552 13.3755 16.4649C13.2081 16.3778 13.0221 16.3326 12.8333 16.3332H4.66668Z" stroke="white" stroke-width="2.33333" stroke-linecap="round" stroke-linejoin="round"/>
</svg>
