<svg width="47" height="49" viewBox="0 0 47 49" fill="none" xmlns="http://www.w3.org/2000/svg">
<path d="M23.1246 48.75C24.407 48.75 25.6043 48.2806 27.1051 47.6924C27.1916 47.6585 27.2792 47.6245 27.3678 47.5898L34.6022 44.7617C36.8695 43.8756 38.6429 42.9467 39.8815 41.3867C41.1153 39.8326 41.6245 37.8947 42.0035 35.5068L45.4625 13.7158C45.8746 11.1202 46.2145 8.97796 46.2467 7.26855C46.2804 5.47952 45.9907 3.82416 44.8326 2.44238C43.6697 1.05506 42.0935 0.493559 40.3346 0.240234C38.6626 -0.000532976 36.5221 -8.17946e-05 33.9401 0L12.3092 0C9.72712 -8.17946e-05 7.58663 -0.000531759 5.91467 0.240234C4.1558 0.493558 2.57951 1.05506 1.41662 2.44238C0.25858 3.82416 -0.0311032 5.47952 0.00255585 7.26855C0.0347435 8.97793 0.374688 11.1203 0.786736 13.7158L4.24572 35.5068C4.62475 37.8947 5.13399 39.8326 6.36779 41.3867C7.60637 42.9467 9.37976 43.8756 11.6471 44.7617L18.8815 47.5898C18.97 47.6245 19.0577 47.6585 19.1442 47.6924C20.645 48.2806 21.8423 48.75 23.1246 48.75ZM23.1246 45C22.6392 45 22.1405 44.8368 20.2467 44.0967L13.0113 41.2695C10.8644 40.4304 9.89256 39.7956 9.30431 39.0547C8.71145 38.3078 8.31202 37.2069 7.94884 34.9189L4.51232 13.2666C4.07285 10.4978 3.77829 8.61509 3.75158 7.19824C3.72585 5.83068 3.96342 5.242 4.29064 4.85156C4.61297 4.46701 5.13187 4.14184 6.44884 3.95215C7.82201 3.75438 9.69079 3.75 12.4537 3.75L33.7955 3.75C36.5585 3.75 38.4272 3.75438 39.8004 3.95215C41.1174 4.14184 41.6363 4.46701 41.9586 4.85156C42.2858 5.242 42.5234 5.83068 42.4977 7.19824C42.471 8.61509 42.1764 10.4978 41.7369 13.2666L38.3004 34.9189C37.9372 37.2069 37.5378 38.3078 36.9449 39.0547C36.3567 39.7956 35.3849 40.4304 33.2379 41.2695L26.0026 44.0967C24.1088 44.8368 23.6101 45 23.1246 45ZM23.0231 36.25C23.5545 36.25 24.0503 36.0805 24.3541 35.9766C24.3828 35.9668 24.4101 35.9577 24.4352 35.9492L27.5211 34.9121C27.8695 34.795 28.2534 34.6655 28.5797 34.5146C28.9289 34.3532 29.3649 34.1011 29.7262 33.6553C30.0884 33.2082 30.2441 32.7289 30.3287 32.3516C30.4074 32.0004 30.452 31.598 30.4918 31.2363L30.9147 27.3965C30.9825 26.7807 31.0208 26.1506 30.9518 25.5674C30.8803 24.9635 30.6772 24.2655 30.1393 23.6758C29.6039 23.0889 28.9311 22.8221 28.3453 22.6914C27.7767 22.5646 27.1495 22.5352 26.5328 22.5352H18.6442C18.3825 22.5352 18.1937 22.5269 18.0582 22.5146C18.0348 22.3855 18.0104 22.2052 17.9879 21.9561L17.5358 16.9385C17.5098 16.6508 17.4998 16.4349 17.4996 16.2744C17.6654 16.2595 17.8899 16.25 18.192 16.25L30.6246 16.25C31.6601 16.25 32.4996 15.4105 32.4996 14.375C32.4996 13.3395 31.6601 12.5 30.6246 12.5L18.192 12.5C17.5857 12.5 16.9671 12.5286 16.4049 12.6533C15.8251 12.7819 15.1624 13.0435 14.6295 13.6162C14.094 14.1918 13.8813 14.8754 13.7994 15.4717C13.7205 16.0468 13.7457 16.6687 13.8004 17.2754L14.2535 22.293C14.3354 23.2012 14.4987 24.497 15.4733 25.375C16.439 26.2448 17.7407 26.2851 18.6442 26.2852H26.5328C26.8397 26.2852 27.0685 26.2954 27.2379 26.3105C27.2344 26.4745 27.2193 26.6938 27.1871 26.9854L26.7643 30.8262C26.7468 30.9847 26.7324 31.1131 26.7184 31.2227C26.6108 31.261 26.4832 31.3045 26.3258 31.3574L23.2399 32.3945C23.1512 32.4243 23.082 32.4476 23.0231 32.4668C22.964 32.4476 22.895 32.4244 22.8063 32.3945L19.3727 31.2402C19.3216 31.2231 19.2792 31.2075 19.2457 31.1943C19.2385 31.1621 19.2308 31.1227 19.2223 31.0752C19.0403 30.0558 18.0659 29.3766 17.0465 29.5586C16.0273 29.7408 15.3489 30.7151 15.5309 31.7344C15.6365 32.3257 15.8342 33.0399 16.3678 33.6621C16.9019 34.2847 17.583 34.5952 18.1774 34.7949L21.6119 35.9492C21.6371 35.9577 21.6643 35.9667 21.693 35.9766C21.9968 36.0805 22.4918 36.25 23.0231 36.25Z" fill="#E0DCD4"/>
</svg>
