<svg width="60" height="60" viewBox="0 0 60 60" fill="none" xmlns="http://www.w3.org/2000/svg">
<path d="M6.57023 0C3.04203 0 0.275427 3.02954 0.594872 6.54324L4.59462 50.5382C4.83521 53.1844 6.78766 55.3573 9.39322 55.8784L28.8232 59.7646C29.6001 59.92 30.3999 59.92 31.1768 59.7646L50.6068 55.8784C53.2123 55.3573 55.1648 53.1844 55.4054 50.5382L59.4051 6.54324C59.7246 3.02954 56.958 0 53.4298 0H6.57023ZM50.4947 49.3423C50.4146 50.2245 49.7636 50.9489 48.895 51.1226L30.3921 54.8216C30.1333 54.8734 29.8667 54.8734 29.6079 54.8216L11.1049 51.1226C10.2363 50.9489 9.5854 50.2246 9.50518 49.3425L5.67115 7.18137C5.56464 6.01012 6.48685 5.00024 7.66293 5.00024H52.3329C53.5089 5.00024 54.4311 6.00999 54.3247 7.18118L50.4947 49.3423Z" fill="#E0DCD4"/>
<path d="M24.5 9.99976C23.3954 9.99976 22.5 10.8952 22.5 11.9998V40.942C22.5 42.1119 21.43 42.9896 20.2827 42.7608C19.4765 42.6 18.8724 41.9278 18.7983 41.1092L18.6363 39.3197C18.5431 38.2892 17.6792 37.5 16.6445 37.5H15.6397C14.4637 37.5 13.5415 38.5098 13.6479 39.681L14.147 45.1727C14.2272 46.0551 14.8784 46.7796 15.7473 46.953L25.1087 48.8217C26.3461 49.0686 27.5002 48.1221 27.5002 46.8603V11.9998C27.5002 10.8952 26.6048 9.99976 25.5002 9.99976H24.5ZM46.7672 15C47.8018 15 48.6655 14.2111 48.7591 13.1808L48.8498 12.1805C48.9561 11.0094 48.034 9.99976 46.858 9.99976H34.4997C33.3951 9.99976 32.4997 10.8952 32.4997 11.9998V30.4998C32.4997 31.6043 33.3951 32.4998 34.4997 32.4998H39.7926C40.9687 32.4998 41.8909 33.5096 41.7844 34.6808L41.2097 41.002C41.1295 41.8843 40.4784 42.6087 39.6096 42.7822L34.1081 43.8808C33.1729 44.0675 32.4997 44.8885 32.4997 45.8421V46.8603C32.4997 48.1221 33.6538 49.0686 34.8912 48.8217L44.2526 46.953C45.1215 46.7796 45.7727 46.0551 45.8529 45.1726L47.2603 29.6812C47.3667 28.51 46.4445 27.5002 45.2685 27.5002H39.5C38.3954 27.5002 37.5 26.6048 37.5 25.5002V17C37.5 15.8954 38.3954 15 39.5 15H46.7672Z" fill="#E0DCD4"/>
</svg>
