<svg width="54" height="40" viewBox="0 0 54 40" fill="none" xmlns="http://www.w3.org/2000/svg">
<path d="M53.5368 18.5966L37.3377 0.597567C36.9921 0.215988 36.5097 0 35.9986 0H25.1991C24.8515 0.000376767 24.5113 0.101124 24.2194 0.29014C23.9276 0.479156 23.6966 0.748404 23.554 1.06554C23.266 1.71711 23.3848 2.47666 23.86 3.00224L38.9756 19.7989L23.86 36.592C23.3848 37.1212 23.2624 37.8807 23.554 38.5287C23.8456 39.1803 24.49 39.5978 25.1991 39.5978H35.9986C36.5097 39.5978 36.9921 39.3783 37.3377 39.0039L53.5368 21.0049C54.1524 20.3209 54.1524 19.2769 53.5368 18.5966Z" fill="white"/>
<path d="M53.5368 18.5966L37.3377 0.597567C36.9921 0.215988 36.5097 0 35.9986 0H25.1991C24.8515 0.000376767 24.5113 0.101124 24.2194 0.29014C23.9276 0.479156 23.6966 0.748404 23.554 1.06554C23.266 1.71711 23.3848 2.47666 23.86 3.00224L38.9756 19.7989L23.86 36.592C23.3848 37.1212 23.2624 37.8807 23.554 38.5287C23.8456 39.1803 24.49 39.5978 25.1991 39.5978H35.9986C36.5097 39.5978 36.9921 39.3783 37.3377 39.0039L53.5368 21.0049C54.1524 20.3209 54.1524 19.2769 53.5368 18.5966Z" fill="black" fill-opacity="0.2"/>
<path d="M30.1396 18.5966L13.9405 0.597567C13.5949 0.215988 13.1125 0 12.6013 0H1.80193C1.45423 0.000376767 1.11404 0.101124 0.822219 0.29014C0.530393 0.479156 0.299341 0.748404 0.156816 1.06554C-0.131169 1.71711 -0.0123751 2.47666 0.462799 3.00224L15.5784 19.7989L0.462799 36.592C-0.0123751 37.1212 -0.134769 37.8807 0.156816 38.5287C0.4484 39.1803 1.09276 39.5978 1.80193 39.5978H12.6013C13.1125 39.5978 13.5949 39.3783 13.9405 39.0039L30.1396 21.0049C30.7552 20.3209 30.7552 19.2769 30.1396 18.5966Z" fill="white"/>
<path d="M30.1396 18.5966L13.9405 0.597567C13.5949 0.215988 13.1125 0 12.6013 0H1.80193C1.45423 0.000376767 1.11404 0.101124 0.822219 0.29014C0.530393 0.479156 0.299341 0.748404 0.156816 1.06554C-0.131169 1.71711 -0.0123751 2.47666 0.462799 3.00224L15.5784 19.7989L0.462799 36.592C-0.0123751 37.1212 -0.134769 37.8807 0.156816 38.5287C0.4484 39.1803 1.09276 39.5978 1.80193 39.5978H12.6013C13.1125 39.5978 13.5949 39.3783 13.9405 39.0039L30.1396 21.0049C30.7552 20.3209 30.7552 19.2769 30.1396 18.5966Z" fill="black" fill-opacity="0.2"/>
</svg>
