<svg width="1600" height="664" viewBox="0 0 1600 664" fill="none" xmlns="http://www.w3.org/2000/svg">
<g opacity="0.2">
<path d="M1895.86 616.091C1759.88 556.162 1605.75 488.236 1442.22 487.509C1441.47 487.506 1440.7 487.504 1439.95 487.504C1333.08 487.504 1232.36 520.894 1134.92 553.194C1096.93 565.788 1057.65 578.811 1018.34 589.776C960.788 605.825 903.932 613.867 847.229 613.867C766.585 613.868 686.247 597.603 604.645 564.98C560.137 547.186 515.755 526.585 472.834 506.661C378.968 463.088 281.905 418.031 177.748 399.717C150.169 394.867 123.083 392.391 96.1223 392.391C-0.855194 392.391 -96.4653 424.383 -209.841 492.975L-210.012 492.674C-141.073 450.966 -81.9875 424.241 -24.0664 408.568C43.2994 390.34 109.332 387.333 177.804 399.372C224.55 407.591 273.893 421.897 328.652 443.104C377.479 462.014 426.025 484.549 472.972 506.342C515.888 526.264 560.265 546.863 604.765 564.654C686.319 597.257 766.635 613.517 847.23 613.517C903.912 613.517 960.721 605.482 1018.25 589.438C1057.55 578.476 1096.83 565.454 1134.82 552.861C1183.98 536.564 1234.81 519.713 1285.67 507.378C1342.65 493.558 1393.86 486.952 1442.22 487.159C1480.66 487.33 1519.26 491.069 1560.23 498.589C1596.78 505.3 1634.26 514.863 1674.81 527.825C1747.64 551.103 1818.07 581.426 1896 615.769L1895.86 616.091Z" fill="url(#paint0_linear_14_2724)"/>
<path d="M1907.6 601.094C1888.33 593.4 1865.51 584.308 1842.32 575.213C1806.23 561.069 1763.58 544.582 1720.98 529.542C1681.46 515.589 1651.05 506.116 1622.4 498.826C1565.53 484.363 1505.39 477.031 1443.61 477.031C1443.12 477.031 1442.63 477.031 1442.14 477.032C1380.5 477.16 1316.66 487.13 1246.96 507.51C1235.32 510.896 1223.46 514.588 1212 518.16C1199.37 522.094 1186.31 526.162 1173.47 529.84C1152.52 535.858 1131.6 541.256 1111.36 546.477C1105.06 548.102 1098.54 549.783 1092.14 551.454C1067.59 557.782 1040.93 564.285 1010.64 571.332C1003.67 572.954 996.274 574.607 988.671 576.246C941.902 586.328 906.614 592.422 874.254 596.004C826.118 601.299 780.461 601.553 734.673 596.779C687.995 591.912 642.419 581.956 595.341 566.34C534.237 546.072 468.899 519.204 401.144 486.485C392.658 482.4 384.097 478.247 375.819 474.23C309.013 441.819 245.912 411.204 176.46 393.012C173.544 392.248 170.081 391.349 166.515 390.475C100.263 374.23 36.5775 373.667 -28.1809 388.753C-89.6509 403.137 -151.744 431.046 -229.511 479.246L-229.707 478.907C-193.315 456.352 -160.81 438.52 -130.335 424.394C-94.7357 407.893 -61.3486 396.108 -28.2651 388.367C3.52264 380.961 35.7752 377.31 67.5759 377.509C100.072 377.713 133.39 381.946 166.602 390.09C170.171 390.964 173.635 391.864 176.553 392.628C246.04 410.829 309.157 441.451 375.98 473.871C384.258 477.888 392.819 482.041 401.304 486.126C469.046 518.839 534.368 545.699 595.457 565.963C687.337 596.44 778.519 606.136 874.213 595.61C906.561 592.03 941.837 585.938 988.593 575.858C996.193 574.22 1003.58 572.567 1010.56 570.946C1040.84 563.9 1067.5 557.398 1092.05 551.071C1098.45 549.399 1104.97 547.718 1111.27 546.093C1131.5 540.873 1152.42 535.475 1173.37 529.459C1186.2 525.782 1199.26 521.715 1211.89 517.781C1223.35 514.21 1235.21 510.516 1246.85 507.13C1280.6 497.262 1312.01 490.018 1342.88 484.985C1376.92 479.435 1409.38 476.704 1442.14 476.637C1473.04 476.568 1503.7 478.342 1533.26 481.876C1563.44 485.486 1593.46 491.059 1622.49 498.442C1651.15 505.736 1681.57 515.212 1721.1 529.167C1763.71 544.209 1806.36 560.698 1842.45 574.843C1865.64 583.94 1888.47 593.031 1907.73 600.725L1907.6 601.094Z" fill="url(#paint1_linear_14_2724)"/>
<path d="M747.723 589.01C740.231 589.01 732.797 588.88 725.394 588.62C678.408 586.968 632.827 580.124 586.044 567.697C513.014 548.298 445.587 522.883 385.637 492.16C363.751 481.005 342.377 469.382 321.707 458.142C269.258 429.621 219.717 402.682 165.065 384.441L164.752 384.336C161.657 383.303 158.457 382.235 155.284 381.232C88.3822 360.044 23.7619 356.751 -42.2669 371.167C-121.16 388.536 -194.284 430.713 -249.176 465.518L-249.398 465.142C-210.866 440.71 -178.548 422.515 -147.693 407.879C-110.75 390.357 -76.2937 378.207 -42.3548 370.736C-9.6133 363.587 23.5856 360.815 56.32 362.491C88.9762 364.166 122.314 370.328 155.409 380.809C158.584 381.814 161.786 382.883 164.883 383.916L165.196 384.02C219.883 402.272 269.439 429.22 321.905 457.751C342.573 468.99 363.944 480.611 385.826 491.765C445.749 522.474 513.148 547.877 586.15 567.269C675.664 591.048 764.021 594.73 864.215 578.862C887.819 575.093 911.525 570.322 936.623 565.27C950.905 562.395 965.673 559.423 980.418 556.653C984.259 555.932 988.091 555.217 991.914 554.504C995.577 553.82 999.232 553.137 1002.88 552.453C1015.86 550.01 1028.8 547.703 1041.3 545.472C1056.42 542.775 1070.7 540.228 1085.17 537.443C1091.65 536.195 1098.26 534.97 1104.65 533.786C1124.94 530.024 1145.91 526.135 1167.28 520.735C1183.99 516.534 1200.97 511.08 1217.39 505.805C1225.6 503.167 1234.09 500.439 1242.4 497.918C1310.48 477.066 1375.78 466.663 1442.06 466.114C1513.28 465.545 1571.95 471.686 1626.69 485.43C1661.24 494.107 1695.48 505.804 1727.6 517.041C1758.07 527.699 1788.79 538.738 1818.5 549.414C1829.79 553.472 1841.06 557.521 1852.31 561.549C1873.59 569.181 1896.45 577.386 1919.47 585.679L1919.33 586.096C1896.31 577.802 1873.45 569.597 1852.17 561.965C1840.92 557.938 1829.65 553.889 1818.36 549.831C1788.65 539.156 1757.94 528.117 1727.46 517.459C1695.36 506.225 1661.12 494.531 1626.59 485.858C1571.88 472.124 1513.25 465.986 1442.06 466.555C1375.83 467.103 1310.56 477.501 1242.52 498.341C1234.21 500.862 1225.73 503.589 1217.52 506.226C1201.09 511.503 1184.11 516.959 1167.38 521.163C1146 526.565 1125.02 530.456 1104.72 534.22C1098.33 535.404 1091.73 536.629 1085.25 537.877C1070.77 540.662 1056.49 543.209 1041.37 545.906C1028.87 548.137 1015.93 550.444 1002.95 552.887C999.307 553.571 995.652 554.253 991.988 554.937C988.166 555.65 984.334 556.365 980.493 557.087C965.751 559.856 950.985 562.828 936.704 565.703C911.601 570.755 887.891 575.528 864.279 579.297C823.192 585.806 784.834 589.01 747.723 589.01Z" fill="url(#paint2_linear_14_2724)"/>
<path d="M694.375 580.852C654.672 580.852 615.995 576.963 576.747 569.055C497.475 553.082 427.958 529.121 370.127 497.836C340.002 481.654 311.755 464.151 284.438 447.224C240.748 420.151 199.481 394.58 153.664 375.868L152.089 375.224C149.462 374.149 146.745 373.037 144.048 371.985C77.7709 346.111 10.3447 339.917 -56.3573 353.581C-135.24 369.931 -208.037 412.4 -268.845 451.788L-269.093 451.376C-228.966 425.383 -195.907 406.314 -165.055 391.365C-126.829 372.843 -91.3034 360.328 -56.449 353.104C-22.6664 346.185 11.4867 344.291 45.0613 347.475C77.961 350.595 111.321 358.689 144.214 371.53C146.914 372.583 149.633 373.695 152.262 374.771L153.836 375.415C199.689 394.142 240.972 419.723 284.679 446.806C311.99 463.729 340.23 481.229 370.344 497.404C428.135 528.668 497.609 552.614 576.837 568.577C664.141 586.168 747.095 584.235 854.212 562.115C866.707 559.512 879.157 556.703 892.337 553.728C918.203 547.891 944.949 541.855 972.24 537.448C979.167 536.331 986.462 535.223 995.198 533.96C1013.15 531.352 1030.76 529.348 1047.8 527.409C1057.84 526.266 1068.22 525.084 1078.3 523.816C1084.95 522.979 1091.74 522.207 1098.31 521.46C1118.56 519.158 1139.51 516.777 1161.19 512.012C1179.75 507.969 1198.56 501.703 1216.76 495.642C1223.72 493.324 1230.92 490.925 1237.94 488.708C1304.52 467.429 1371.26 456.597 1441.97 455.592C1498.69 454.813 1565.49 456.202 1630.89 472.418C1664.45 480.744 1697.84 492.332 1730.13 503.539L1734.1 504.915C1772.06 518.076 1816.96 533.516 1862.17 548.255C1880.98 554.403 1899.98 560.543 1918.36 566.48L1931.21 570.634L1931.07 571.099L1918.22 566.945C1899.84 561.008 1880.84 554.868 1862.03 548.719C1816.81 533.98 1771.91 518.538 1733.95 505.377L1729.98 504C1697.7 492.797 1664.32 481.212 1630.78 472.891C1565.43 456.688 1498.67 455.301 1441.98 456.08C1371.32 457.083 1304.62 467.908 1238.08 489.174C1231.06 491.391 1223.86 493.788 1216.9 496.107C1198.7 502.171 1179.87 508.441 1161.28 512.489C1139.58 517.258 1118.62 519.641 1098.36 521.945C1091.79 522.691 1085 523.463 1078.35 524.3C1068.28 525.568 1057.89 526.75 1047.85 527.893C1030.82 529.832 1013.21 531.837 995.262 534.443C986.528 535.705 979.236 536.814 972.313 537.93C945.035 542.334 918.296 548.368 892.436 554.204C879.254 557.18 866.803 559.99 854.303 562.593C802.458 573.299 758.544 578.979 716.101 580.469C708.822 580.723 701.579 580.852 694.375 580.852Z" fill="url(#paint3_linear_14_2724)"/>
<path d="M643.912 575.737C619.041 575.737 593.724 574.069 567.455 570.412C483.852 558.776 412.243 536.267 354.618 503.51C318.8 483.318 286.674 460.597 255.606 438.625C217.846 411.919 182.18 386.695 142.264 367.293L140.165 366.27C137.764 365.1 135.281 363.888 132.813 362.738C66.4958 331.806 -1.8898 322.809 -70.4447 335.995C-149.821 351.49 -222.16 394.206 -288.509 438.058L-288.785 437.609C-222.393 393.728 -150.001 350.984 -70.539 335.472C-35.6538 328.762 -0.54657 327.747 33.807 332.458C67.0208 337.012 100.402 347.036 133.024 362.252C135.496 363.404 137.981 364.617 140.384 365.789L142.482 366.811C182.436 386.231 218.118 411.466 255.896 438.184C286.954 460.149 319.068 482.862 354.865 503.043C412.435 535.768 483.984 558.257 567.524 569.885C664.248 583.347 748.086 569.821 844.21 545.369C850.882 543.657 857.785 541.839 864.462 540.083C896.479 531.656 929.587 522.943 964.067 518.243C971.402 517.245 979.074 516.337 987.52 515.467C1007.95 513.344 1027.74 512.389 1046.88 511.465C1054.96 511.075 1063.32 510.671 1071.43 510.189C1078.06 509.796 1084.84 509.507 1091.41 509.229C1111.81 508.362 1132.91 507.466 1155.1 503.288C1175.2 499.554 1195.51 492.532 1215.15 485.742C1221.18 483.657 1227.41 481.501 1233.49 479.497C1299.22 457.812 1367.39 446.55 1441.89 445.069C1507.68 443.799 1571.96 443.941 1635.09 459.405C1666.18 467.027 1697.09 477.732 1726.98 488.084C1731.52 489.655 1736.06 491.227 1740.6 492.789C1786.86 508.695 1829.85 522.489 1872.03 534.961C1893.65 541.381 1915.5 547.676 1936.62 553.764L1942.95 555.589L1942.81 556.101L1936.48 554.276C1915.36 548.188 1893.52 541.893 1871.89 535.473C1829.71 522.999 1786.71 509.202 1740.44 493.294C1735.9 491.731 1731.36 490.16 1726.82 488.588C1696.94 478.24 1666.04 467.539 1634.97 459.923C1571.9 444.473 1507.66 444.332 1441.9 445.601C1367.45 447.081 1299.33 458.334 1233.64 480.005C1227.57 482.007 1221.34 484.162 1215.31 486.247C1195.65 493.044 1175.32 500.072 1155.19 503.812C1132.97 507.996 1111.85 508.893 1091.43 509.76C1084.87 510.04 1078.08 510.327 1071.46 510.721C1063.34 511.203 1054.99 511.606 1046.9 511.997C1027.77 512.921 1007.99 513.876 987.57 515.997C979.129 516.867 971.463 517.774 964.134 518.771C929.683 523.467 896.591 532.176 864.588 540.599C857.911 542.356 851.006 544.173 844.333 545.886C774.251 563.713 710.693 575.737 643.912 575.737Z" fill="url(#paint4_linear_14_2724)"/>
<path d="M598.93 573.389C585.376 573.389 571.848 572.846 558.163 571.77C519.158 568.702 482.232 562.641 448.41 553.754C407.543 543.017 370.768 528.022 339.106 509.184C299.043 485.564 264.747 457.969 231.58 431.281C198.132 404.366 166.538 378.945 130.858 358.716C130.104 358.288 129.35 357.858 128.596 357.429C126.303 356.123 123.933 354.772 121.572 353.487C55.4242 317.445 -13.9204 305.642 -84.5365 318.408C-160.35 332.354 -228.77 370.837 -308.178 424.327L-308.482 423.843C-278.994 403.979 -239.989 378.582 -199.777 358.336C-159.099 337.856 -121.435 324.609 -84.6331 317.839C-13.8922 305.051 55.5719 316.872 121.831 352.976C124.197 354.263 126.569 355.615 128.864 356.922C129.618 357.351 130.372 357.78 131.126 358.208C166.844 378.459 198.455 403.894 231.922 430.823C265.073 457.498 299.353 485.081 339.383 508.682C397.603 543.32 471.225 564.352 558.204 571.193C657.456 578.999 738.529 557.517 834.202 528.623C837.127 527.732 840.073 526.83 843.035 525.922C879.058 514.89 916.307 503.483 955.89 499.037C963.512 498.183 971.346 497.508 979.839 496.974C1002 495.556 1023.2 495.922 1043.7 496.275C1050.57 496.393 1057.67 496.515 1064.56 496.562C1071.11 496.607 1077.83 496.796 1084.32 496.98C1104.93 497.562 1126.24 498.163 1149.01 494.564C1170.09 491.288 1191.35 483.681 1211.9 476.323C1217.54 474.307 1223.36 472.221 1229.03 470.286C1294.49 447.917 1362.1 436.56 1441.8 434.546L1448.49 434.379C1514.31 432.736 1576.49 431.186 1639.28 446.391C1668.95 453.58 1698.42 463.806 1726.91 473.694C1733.53 475.99 1740.37 478.363 1747.1 480.661C1792.03 495.984 1837.38 509.78 1881.88 521.664C1904.91 527.844 1928.17 533.777 1950.66 539.514L1954.68 540.541L1954.55 541.103L1950.53 540.075C1928.03 534.338 1904.77 528.405 1881.74 522.224C1837.23 510.337 1791.87 496.537 1746.93 481.21C1740.19 478.912 1733.35 476.538 1726.74 474.242C1698.25 464.358 1668.8 454.136 1639.16 446.954C1576.43 431.766 1514.29 433.317 1448.5 434.957L1441.82 435.123C1362.17 437.136 1294.61 448.484 1229.2 470.834C1223.54 472.768 1217.72 474.853 1212.08 476.869C1191.51 484.235 1170.23 491.852 1149.09 495.136C1126.28 498.742 1104.94 498.141 1084.31 497.558C1077.82 497.375 1071.1 497.185 1064.55 497.141C1057.66 497.094 1050.56 496.971 1043.69 496.853C1023.2 496.5 1002.02 496.135 979.873 497.551C971.389 498.085 963.563 498.759 955.95 499.612C916.418 504.052 879.193 515.452 843.194 526.477C840.231 527.384 837.285 528.286 834.359 529.178C783.042 544.676 740.13 556.561 697.498 564.193C663.026 570.364 630.919 573.389 598.93 573.389Z" fill="url(#paint5_linear_14_2724)"/>
<path d="M558.37 573.22C555.223 573.22 552.06 573.189 548.875 573.126C487.168 571.904 397.994 560.804 323.597 514.859C280.352 488.152 245.011 455.985 210.833 424.878C180.588 397.349 152.02 371.347 119.454 350.137C118.695 349.643 117.937 349.146 117.178 348.65C114.945 347.188 112.637 345.677 110.333 344.237C44.5209 303.045 -25.7823 288.438 -98.6257 300.823C-184.036 315.631 -261.727 365.251 -327.843 410.598L-328.176 410.077C-295.776 387.856 -257.246 362.368 -217.137 341.822C-175.271 320.376 -136.538 306.764 -98.7241 300.208C-25.7352 287.799 44.7054 302.433 110.643 343.703C112.952 345.146 115.264 346.659 117.499 348.123C118.258 348.619 119.015 349.115 119.773 349.609C152.381 370.845 180.966 396.863 211.23 424.409C245.387 455.498 280.707 487.645 323.904 514.322C398.188 560.198 487.251 571.282 548.886 572.502C645.428 574.417 724.076 546.901 815.144 515.045C818.147 513.995 821.164 512.939 824.196 511.879L824.802 511.666C861.945 498.575 904.044 483.738 947.716 479.833C955.579 479.132 963.576 478.69 972.162 478.482C995.739 477.885 1018.01 479.722 1039.55 481.499C1045.52 481.992 1051.7 482.501 1057.69 482.938C1064.14 483.407 1070.76 484.059 1077.16 484.69C1098 486.741 1119.55 488.863 1142.92 485.841C1164.85 483.072 1186.9 474.915 1208.23 467.028C1213.61 465.038 1219.17 462.98 1224.57 461.075C1258.83 448.977 1293.74 440.128 1331.31 434.021C1365.1 428.527 1401.22 425.256 1441.72 424.023C1449.26 423.798 1456.9 423.54 1464.3 423.289C1493.91 422.286 1524.53 421.249 1554.37 422.257C1587.79 423.386 1616.94 427.024 1643.48 433.379C1672.29 440.28 1700.87 450.24 1728.51 459.872C1736.73 462.737 1745.23 465.699 1753.6 468.535C1798.73 483.807 1845.21 497.209 1891.74 508.37C1915.81 514.179 1940.12 519.615 1963.64 524.873L1966.42 525.496L1966.29 526.104L1963.51 525.482C1939.99 520.224 1915.68 514.787 1891.6 508.977C1845.05 497.813 1798.56 484.406 1753.42 469.128C1745.04 466.291 1736.54 463.329 1728.32 460.463C1700.69 450.836 1672.12 440.881 1643.35 433.986C1584.3 419.849 1526.02 421.823 1464.32 423.913C1456.92 424.162 1449.28 424.422 1441.74 424.646C1358.01 427.196 1289.07 438.959 1224.76 461.665C1219.37 463.57 1213.81 465.626 1208.43 467.616C1187.08 475.515 1164.99 483.683 1143 486.46C1119.56 489.49 1097.98 487.366 1077.11 485.311C1070.71 484.681 1064.09 484.03 1057.65 483.561C1051.65 483.123 1045.48 482.614 1039.51 482.121C1017.98 480.346 995.724 478.508 972.177 479.105C963.603 479.313 955.619 479.755 947.768 480.455C904.169 484.354 862.106 499.178 824.996 512.257L824.39 512.47C821.356 513.53 818.339 514.586 815.337 515.636C727.219 546.46 650.717 573.219 558.37 573.22Z" fill="url(#paint6_linear_14_2724)"/>
<path d="M519.12 574.867C485.911 574.868 453.891 571.783 423.673 565.662C379.757 556.765 340.868 541.581 308.088 520.533C262.089 490.997 226.312 454.288 191.713 418.788C164.128 390.484 138.072 363.75 108.049 341.557C107.318 341.017 106.587 340.474 105.856 339.93C103.652 338.293 101.373 336.6 99.0925 334.984C33.7491 288.618 -37.5127 271.207 -112.714 283.239C-199.386 297.404 -276.229 347.14 -347.509 396.869L-347.869 396.314C-312.725 371.795 -274.666 346.224 -234.497 325.31C-191.461 302.904 -151.659 288.926 -112.814 282.578C-74.3864 276.43 -36.4156 278.058 0.0459747 287.415C34.505 296.257 67.9516 312.077 99.4575 334.432C101.743 336.052 104.026 337.748 106.233 339.387C106.963 339.93 107.693 340.472 108.424 341.013C138.49 363.237 164.563 389.99 192.167 418.313C226.74 453.787 262.491 490.47 308.427 519.965C384.45 568.779 476.083 576.191 539.566 573.814C627.629 570.516 697.636 542.193 778.698 509.399C790.204 504.744 802.102 499.931 814.191 495.138C855.487 478.626 896.148 463.562 939.545 460.63C947.621 460.087 955.778 459.878 964.489 459.992C989.31 460.288 1012.48 463.705 1034.88 467.01C1040.13 467.785 1045.56 468.585 1050.83 469.316C1057.16 470.194 1063.38 471.24 1069.97 472.349C1091.05 475.893 1112.84 479.558 1136.84 477.119C1159.53 474.885 1182.29 466.203 1204.31 457.806C1209.51 455.82 1214.9 453.766 1220.12 451.866C1254.69 439.279 1290.3 430.106 1328.99 423.822C1362.53 418.375 1399.38 414.999 1441.64 413.502C1452.97 413.108 1464.46 412.59 1475.56 412.089C1503.96 410.808 1533.33 409.482 1562 410.193C1594.11 410.99 1622.14 414.318 1647.68 420.367C1675.97 427.073 1704.01 436.895 1731.12 446.394C1740.61 449.72 1750.43 453.157 1760.11 456.411C1805.76 471.743 1853.36 484.753 1901.59 495.077C1926.53 500.451 1951.71 505.329 1976.07 510.046L1978.16 510.451L1978.04 511.109L1975.95 510.703C1951.59 505.986 1926.4 501.108 1901.46 495.732C1853.21 485.403 1805.58 472.387 1759.91 457.046C1750.22 453.792 1740.41 450.353 1730.92 447.028C1703.82 437.535 1675.8 427.718 1647.54 421.02C1590.71 407.561 1534.79 410.085 1475.59 412.757C1464.48 413.258 1453 413.776 1441.66 414.17C1352.75 417.32 1284.48 429.141 1220.33 452.497C1215.12 454.395 1209.73 456.448 1204.53 458.434C1182.48 466.845 1159.67 475.543 1136.9 477.785C1112.82 480.232 1090.98 476.56 1069.87 473.009C1063.29 471.901 1057.07 470.855 1050.75 469.979C1045.47 469.247 1040.04 468.447 1034.79 467.672C1012.41 464.371 989.261 460.956 964.482 460.661C955.788 460.545 947.646 460.755 939.587 461.297C896.281 464.222 855.671 479.269 814.423 495.762C802.336 500.554 790.439 505.368 778.934 510.022C697.818 542.838 627.762 571.179 539.59 574.482C532.722 574.739 525.895 574.867 519.12 574.867Z" fill="url(#paint7_linear_14_2724)"/>
<path d="M485.961 577.897C460.241 577.898 434.97 575.804 411.282 571.656C365.862 563.703 325.923 548.412 292.573 526.206C244.243 494.025 208.518 452.873 173.969 413.075C148.581 383.83 124.6 356.207 96.6397 332.974C95.9614 332.41 95.2835 331.844 94.6063 331.279C92.4058 329.442 90.1303 327.543 87.8478 325.728C23.9927 274.894 -50.2329 254.119 -126.807 265.652C-214.847 279.217 -293.827 331.128 -367.177 383.136L-367.566 382.547C-331.33 356.854 -292.232 330.136 -251.86 308.794C-207.669 285.434 -166.797 271.091 -126.907 264.945C-87.2491 258.972 -48.3234 261.481 -11.2084 272.399C23.7351 282.679 57.2036 300.431 88.2681 325.161C90.5566 326.98 92.8354 328.883 95.0392 330.722C95.7164 331.287 96.3932 331.852 97.0712 332.415C125.075 355.686 149.074 383.33 174.481 412.597C209 452.359 244.694 493.475 292.946 525.604C375.051 580.274 476.86 580.094 530.24 575.123C612.266 567.482 676.117 537.699 750.051 503.212C767.472 495.086 785.486 486.683 804.179 478.393C823.1 469.937 843.549 461.166 864.868 454.312C888.833 446.609 910.586 442.393 931.369 441.424C939.655 441.041 947.977 441.065 956.81 441.499C982.783 442.745 1006.73 447.828 1029.9 452.744C1034.53 453.726 1039.31 454.743 1043.97 455.693C1050.17 456.961 1056.29 458.413 1062.76 459.949C1084.07 465.01 1106.11 470.242 1130.75 468.395C1154.15 466.713 1177.57 457.518 1200.21 448.625C1205.3 446.627 1210.56 444.561 1215.65 442.653C1250.58 429.568 1286.89 420.071 1326.67 413.617C1360.34 408.154 1396.84 404.773 1441.55 402.977C1455.79 402.415 1470.21 401.587 1484.16 400.785C1511.8 399.196 1540.38 397.553 1568.31 397.972C1599.61 398.442 1626.95 401.51 1651.88 407.352C1679.87 413.919 1707.59 423.685 1734.39 433.13C1744.93 436.846 1755.84 440.689 1766.6 444.281C1812.94 459.732 1861.67 472.349 1911.44 481.78C1937.13 486.686 1963.07 490.973 1988.16 495.118L1989.89 495.403L1989.78 496.109L1988.05 495.824C1962.96 491.678 1937.01 487.391 1911.32 482.483C1861.51 473.045 1812.75 460.421 1766.39 444.962C1755.62 441.368 1744.71 437.524 1734.17 433.806C1707.38 424.368 1679.69 414.608 1651.73 408.05C1596.28 395.055 1539.3 398.33 1484.2 401.498C1470.25 402.301 1455.82 403.129 1441.58 403.691C1375.16 406.36 1296.41 413.156 1215.89 443.326C1210.8 445.231 1205.54 447.296 1200.46 449.293C1177.76 458.204 1154.3 467.419 1130.8 469.108C1106.06 470.965 1083.97 465.719 1062.61 460.647C1056.14 459.111 1050.03 457.66 1043.83 456.394C1039.18 455.443 1034.39 454.427 1029.76 453.444C1006.62 448.534 982.699 443.456 956.779 442.213C947.968 441.78 939.666 441.755 931.402 442.139C885.694 444.269 843.625 461.541 804.453 479.051C785.765 487.338 767.753 495.739 750.335 503.864C713.95 520.835 679.583 536.866 643.918 549.671C603.935 564.025 567.833 572.339 530.303 575.835C515.521 577.213 500.666 577.897 485.961 577.897Z" fill="url(#paint8_linear_14_2724)"/>
<path d="M457.328 581.87C437.35 581.871 417.702 580.468 398.895 577.661C351.986 570.659 310.996 555.256 277.061 531.879C226.707 497.19 191.381 451.672 157.218 407.653C133.695 377.342 111.476 348.713 85.2314 324.388C84.6281 323.829 84.0252 323.268 83.4226 322.708C81.2047 320.645 78.911 318.512 76.6047 316.471C13.4038 260.504 -61.8071 236.85 -140.898 248.066C-230.471 261.076 -308.347 312.887 -386.843 369.406L-387.262 368.782C-344.144 337.736 -307.57 312.845 -269.222 292.28C-223.886 267.969 -181.943 253.26 -140.998 247.313C-100.093 241.512 -60.2114 244.902 -22.4597 257.387C12.9899 269.111 46.4802 288.795 77.0814 315.893C79.3948 317.939 81.6918 320.076 83.9127 322.142C84.5153 322.702 85.1175 323.262 85.7208 323.822C112.01 348.188 134.247 376.841 157.79 407.176C191.918 451.151 227.207 496.622 277.467 531.245C364.962 591.519 476.865 582.928 520.916 576.435C598.57 564.992 660.736 531.822 726.552 496.704C748.175 485.167 770.535 473.236 794.17 461.652C811.902 452.896 833.051 442.919 855.445 435.312C879.709 427.069 901.87 422.787 923.198 422.22C931.69 421.998 940.174 422.255 949.137 423.008C976.206 425.251 1000.87 432.075 1024.72 438.674C1028.8 439.802 1033.01 440.968 1037.11 442.073C1043.19 443.714 1049.19 445.552 1055.55 447.499C1077.1 454.1 1099.38 460.924 1124.67 459.672C1148.73 458.557 1172.77 448.858 1196.02 439.478C1201.02 437.458 1206.2 435.37 1211.2 433.445C1246.5 419.855 1283.52 410.031 1324.35 403.414C1358.06 397.951 1394.18 394.572 1441.46 392.455C1458.05 391.726 1474.84 390.546 1491.07 389.404C1518.23 387.493 1546.31 385.523 1573.81 385.652C1604.61 385.802 1631.52 388.644 1656.08 394.341C1683.93 400.809 1711.47 410.574 1738.11 420.02C1749.56 424.08 1761.4 428.279 1773.1 432.156C1820.2 447.752 1870.06 459.976 1921.29 468.487C1947.72 472.917 1974.42 476.603 2000.23 480.168L2001.62 480.359L2001.52 481.113L2000.14 480.921C1974.32 477.355 1947.62 473.669 1921.18 469.237C1869.9 460.72 1820.01 448.488 1772.88 432.881C1761.17 429 1749.33 424.8 1737.87 420.739C1711.26 411.301 1683.73 401.542 1655.92 395.083C1601.3 382.414 1545.29 386.353 1491.12 390.162C1474.88 391.304 1458.09 392.485 1441.5 393.215C1368.81 396.467 1290.64 403.678 1211.45 434.158C1206.46 436.08 1201.28 438.167 1196.28 440.186C1172.98 449.589 1148.89 459.311 1124.7 460.432C1099.29 461.69 1076.95 454.847 1055.34 448.228C1048.99 446.284 1042.99 444.447 1036.92 442.809C1032.82 441.704 1028.61 440.537 1024.53 439.409C1000.71 432.819 976.081 426.004 949.078 423.767C940.141 423.014 931.681 422.757 923.215 422.98C877.681 424.191 834.435 442.612 794.484 462.34C770.859 473.918 748.505 485.846 726.888 497.38C693.239 515.334 661.457 532.293 628.069 546.354C590.543 562.158 556.527 571.956 521.019 577.189C499.844 580.309 478.403 581.87 457.328 581.87Z" fill="url(#paint9_linear_14_2724)"/>
<path d="M432.163 586.466C417.683 586.466 402.356 585.656 386.511 583.676C338.124 577.628 296.082 562.11 261.552 537.551C209.396 500.456 174.722 450.632 141.19 402.448C119.29 370.979 98.6052 341.256 73.8262 315.801L72.2981 314.229C70.0445 311.908 67.7144 309.509 65.364 307.212C2.88852 246.104 -73.3078 219.571 -154.987 230.48C-246.102 242.954 -325.954 296.818 -406.507 355.675L-406.955 355.017C-326.32 296.099 -246.38 242.179 -155.087 229.681C-73.1689 218.739 3.2468 245.346 65.8975 306.626C68.255 308.929 70.5887 311.333 72.846 313.657L74.3731 315.229C99.1981 340.73 119.901 370.48 141.82 401.977C175.313 450.105 209.947 499.871 261.991 536.887C351.934 600.857 466.507 586.773 511.591 577.749C586.049 562.845 644.596 527.44 706.58 489.957C731.244 475.043 756.747 459.62 784.161 444.912C800.684 435.985 822.648 424.665 846.024 416.31C870.601 407.525 893.172 403.176 915.027 403.015C923.709 402.954 932.365 403.445 941.466 404.518C969.597 407.798 994.921 416.432 1019.41 424.781C1022.98 425.996 1026.67 427.253 1030.25 428.454C1036.21 430.45 1042.1 432.658 1048.34 434.994C1070.12 443.158 1092.64 451.591 1118.58 450.949C1143.3 450.408 1167.93 440.21 1191.74 430.348C1196.69 428.3 1201.8 426.182 1206.74 424.233C1242.46 410.133 1280.17 399.984 1322.03 393.207C1355.68 387.761 1391.37 384.389 1441.38 381.932C1459.92 381.035 1478.69 379.471 1496.84 377.958C1523.72 375.719 1551.52 373.403 1578.74 373.257C1609.26 373.091 1635.92 375.733 1660.28 381.327C1688.1 387.724 1715.58 397.53 1742.16 407.013C1754.41 411.384 1767.07 415.904 1779.6 420.029C1827.52 435.79 1878.51 447.62 1931.15 455.192C1958.29 459.136 1985.71 462.211 2012.22 465.186L2013.35 465.313L2013.27 466.114L2012.14 465.987C1985.62 463.012 1958.19 459.936 1931.04 455.99C1878.36 448.413 1827.33 436.572 1779.37 420.797C1766.83 416.669 1754.16 412.148 1741.9 407.775C1715.35 398.3 1687.89 388.501 1660.11 382.115C1605.96 369.677 1550.52 374.295 1496.91 378.762C1478.75 380.275 1459.97 381.84 1441.42 382.737C1354.09 387.027 1280.81 395.854 1207.02 424.987C1202.09 426.933 1196.98 429.05 1192.03 431.097C1168.15 440.986 1143.46 451.21 1118.6 451.755C1092.53 452.404 1069.93 443.941 1048.07 435.753C1041.84 433.418 1035.96 431.213 1030.01 429.221C1026.42 428.019 1022.74 426.762 1019.17 425.546C994.718 417.21 969.43 408.59 941.38 405.319C932.309 404.249 923.691 403.76 915.033 403.821C867.686 404.17 824.325 424.12 784.52 445.626C757.123 460.326 731.628 475.743 706.973 490.652C644.929 528.171 586.327 563.609 511.739 578.54C491.696 582.553 463.981 586.466 432.163 586.466Z" fill="url(#paint10_linear_14_2724)"/>
<path d="M409.59 591.484C398.192 591.485 386.332 590.946 374.125 589.699C350.553 587.293 328.129 582.415 307.477 575.203C284.906 567.319 264.235 556.56 246.039 543.224C192.255 503.806 158.424 449.726 125.708 397.427C105.249 364.724 85.9261 333.835 62.4172 307.214L61.2303 305.868C58.9221 303.25 56.5352 300.544 54.1201 297.952C-7.57123 231.698 -84.7509 202.285 -169.077 212.894C-261.805 224.858 -343.601 280.765 -426.172 341.945L-426.65 341.252C-388.264 312.81 -347.17 283.051 -303.943 259.253C-256.343 233.048 -212.261 217.607 -169.177 212.049C-125.741 206.584 -83.9476 211.736 -44.9576 227.361C-8.44666 241.994 25.0871 265.545 54.7115 297.361C57.1344 299.96 59.5251 302.671 61.8369 305.293L63.0234 306.639C86.5784 333.311 105.92 364.23 126.397 396.964C159.072 449.195 192.858 503.205 246.514 542.529C341.595 612.214 466.306 588.111 502.264 579.064C574.374 560.921 630.099 523.076 689.095 483.009C715.985 464.747 743.791 445.864 774.151 428.173C812.071 405.931 857.502 383.269 906.857 383.812C915.619 383.911 924.682 384.656 933.796 386.029C962.964 390.384 988.912 400.891 1014.01 411.051C1017.16 412.328 1020.29 413.595 1023.4 414.839C1029.23 417.174 1035.01 419.732 1041.13 422.44C1063.1 432.168 1085.83 442.227 1112.34 442.227C1112.44 442.227 1112.54 442.227 1112.64 442.227C1137.93 442.227 1163.09 431.557 1187.41 421.237C1192.32 419.154 1197.39 417.002 1202.28 415.024C1238.43 400.407 1276.84 389.933 1319.72 383.001C1361.13 376.305 1402.63 373.473 1441.3 371.41C1461.52 370.346 1482 368.374 1501.81 366.468C1528.54 363.894 1556.18 361.234 1583.27 360.813C1613.65 360.339 1640.21 362.795 1664.47 368.316C1692.35 374.663 1719.85 384.538 1746.45 394.088C1759.42 398.745 1772.83 403.56 1786.1 407.903C1835.56 424.065 1886.22 435.185 1941 441.897C1968.81 445.346 1996.91 447.804 2024.08 450.18L2025.08 450.268L2025.02 451.117L2024.01 451.029C1996.83 448.651 1968.73 446.194 1940.9 442.743C1886.08 436.024 1835.36 424.893 1785.86 408.715C1772.57 404.368 1759.15 399.551 1746.18 394.892C1719.6 385.35 1692.13 375.484 1664.3 369.147C1610.35 356.874 1555.21 362.182 1501.89 367.315C1482.07 369.222 1461.58 371.195 1441.34 372.26C1364.96 376.335 1283.61 383.055 1202.58 415.818C1197.7 417.792 1192.85 419.848 1187.72 422.024C1163.32 432.375 1138.09 443.077 1112.64 443.079C1112.54 443.079 1112.44 443.079 1112.33 443.079C1085.65 443.079 1062.86 432.985 1040.81 423.224C1034.7 420.518 1028.92 417.963 1023.1 415.633C1019.99 414.389 1016.86 413.121 1013.71 411.844C988.656 401.701 962.753 391.212 933.678 386.872C924.601 385.505 915.573 384.762 906.848 384.663C906.268 384.657 905.688 384.654 905.11 384.654C856.61 384.654 811.935 406.99 774.554 428.915C744.219 446.592 716.425 465.468 689.546 483.722C630.489 523.83 574.706 561.714 502.458 579.891C479.775 585.599 447.244 591.484 409.59 591.484Z" fill="url(#paint11_linear_14_2724)"/>
<path d="M387.894 596.761C379.053 596.761 370.313 596.42 361.744 595.73C337.513 593.781 314.481 589.113 293.29 581.855C270.132 573.925 249.016 562.835 230.527 548.896C175.25 507.221 142.41 448.932 110.651 392.562C91.4939 358.561 73.3992 326.444 51.0097 298.625L50.2274 297.652C47.8442 294.689 45.3798 291.625 42.8771 288.692C-17.9807 217.288 -96.1455 184.998 -183.168 195.308C-277.689 206.796 -358.049 262.295 -445.838 328.214L-446.346 327.488C-406.962 297.916 -364.867 267.013 -321.305 242.74C-272.582 215.591 -227.43 199.784 -183.268 194.418C-138.551 189.119 -95.8014 195.152 -56.207 212.351C-19.148 228.448 14.407 253.933 43.5257 288.098C46.0366 291.04 48.5051 294.11 50.8923 297.078L51.6743 298.05C74.1098 325.927 92.2224 358.075 111.398 392.11C143.112 448.401 175.906 506.606 231.036 548.171C308.722 606.742 417.263 603.214 492.936 580.38C563.327 559.141 616.801 518.697 673.415 475.878C701.946 454.3 731.448 431.987 764.139 411.435C779.189 401.916 802.099 388.125 827.176 378.31C852.41 368.433 875.803 363.95 898.685 364.608C907.637 364.867 916.869 365.854 926.125 367.54C956.318 373.005 982.862 385.447 1008.53 397.48C1011.22 398.739 1013.89 399.991 1016.54 401.225C1022.26 403.882 1027.93 406.776 1033.93 409.839C1056.18 421.192 1079.18 432.932 1106.42 433.505C1107.11 433.522 1107.81 433.53 1108.51 433.53C1133.75 433.53 1158.79 422.659 1183.03 412.136C1188.14 409.919 1192.96 407.826 1197.82 405.815C1234.42 390.677 1273.53 379.876 1317.39 372.793C1355.66 366.614 1394.56 363.565 1441.21 360.887C1462.92 359.658 1484.92 357.259 1506.19 354.939C1532.87 352.03 1560.45 349.022 1587.52 348.329C1617.86 347.553 1644.41 349.834 1668.67 355.304C1696.66 361.618 1724.25 371.585 1750.92 381.223C1764.55 386.147 1778.64 391.238 1792.6 395.777C1842.95 412.127 1894.71 422.864 1950.85 428.603C1979.35 431.557 2008.13 433.393 2035.98 435.169L2036.81 435.223L2036.76 436.119L2035.92 436.065C2008.07 434.288 1979.28 432.45 1950.76 429.496C1894.56 423.751 1842.75 413.002 1792.34 396.633C1778.37 392.09 1764.27 386.996 1750.64 382.07C1723.98 372.44 1696.43 362.483 1668.49 356.18C1614.56 344.023 1559.51 350.026 1506.28 355.831C1485 358.152 1462.99 360.552 1441.26 361.784C1355.72 366.693 1278.39 373.457 1198.14 406.648C1193.29 408.655 1188.47 410.747 1183.37 412.963C1159.05 423.52 1133.92 434.426 1108.51 434.427C1107.81 434.427 1107.1 434.419 1106.4 434.402C1078.97 433.825 1055.88 422.04 1033.55 410.643C1027.55 407.584 1021.89 404.695 1016.19 402.043C1013.53 400.809 1010.86 399.557 1008.17 398.297C982.553 386.287 956.062 373.869 925.975 368.423C916.76 366.745 907.571 365.762 898.661 365.504C847.588 364.038 800.181 389.689 764.588 412.2C731.928 432.734 702.441 455.035 673.925 476.603C617.248 519.468 563.714 559.958 493.178 581.241C459.422 591.427 422.868 596.761 387.894 596.761Z" fill="url(#paint12_linear_14_2724)"/>
<path d="M367.958 602.373C361.688 602.373 355.47 602.191 349.327 601.825C324.422 600.341 300.78 595.883 279.059 588.576C255.314 580.587 233.766 569.146 215.015 554.567C158.254 510.785 126.534 448.269 95.8581 387.811C77.9204 352.457 60.9769 319.065 39.6032 290.033L39.2995 289.621C36.818 286.25 34.2525 282.764 31.6355 279.429C-27.4923 203.968 -108.78 167.847 -197.257 177.722C-293.498 188.735 -375.68 246.175 -465.501 314.483L-466.039 313.722C-423.999 281.751 -382.622 251.001 -338.665 226.226C-288.825 198.135 -242.603 181.963 -197.356 176.785C-151.351 171.652 -107.646 178.566 -67.4538 197.339C-29.8394 214.909 3.73676 242.328 32.3416 278.834C34.9669 282.181 37.5371 285.673 40.0227 289.049L40.3264 289.461C61.7466 318.556 78.7072 351.983 96.663 387.371C127.292 447.736 158.963 510.156 215.56 553.811C295.212 615.736 406.252 608.818 483.61 581.696C552.758 557.452 604.4 514.281 659.073 468.576C688.812 443.714 719.564 418.006 754.129 394.696C789.845 370.476 837.622 342.984 890.518 345.403C899.663 345.824 909.063 347.05 918.456 349.05C949.666 355.658 976.778 370.094 1003 384.055C1005.24 385.249 1007.47 386.436 1009.69 387.611C1015.29 390.578 1020.85 393.79 1026.74 397.19C1049.21 410.167 1072.44 423.586 1100.34 424.782C1126.9 425.992 1153.19 414.326 1178.63 403.041C1183.72 400.782 1188.53 398.649 1193.36 396.604C1272.99 362.957 1349.45 355.984 1441.13 350.363C1464.18 348.966 1487.53 346.126 1510.12 343.38C1536.82 340.133 1564.44 336.774 1591.55 335.814C1621.95 334.736 1648.55 336.855 1672.87 342.289C1701.02 348.583 1728.74 358.659 1755.54 368.402C1769.78 373.578 1784.5 378.931 1799.11 383.649C1850.35 400.192 1903.21 410.548 1960.7 415.308C1989.86 417.76 2019.32 418.973 2047.81 420.147L2048.55 420.177L2048.51 421.12L2047.78 421.089C2019.28 419.915 1989.81 418.701 1960.63 416.247C1903.07 411.482 1850.15 401.113 1798.83 384.549C1784.22 379.826 1769.48 374.471 1755.24 369.291C1728.46 359.557 1700.78 349.493 1672.68 343.211C1618.63 331.134 1563.52 337.835 1510.23 344.316C1487.63 347.064 1464.26 349.906 1441.18 351.305C1349.59 356.92 1273.2 363.884 1193.71 397.477C1188.88 399.519 1184.07 401.65 1178.99 403.907C1154.7 414.685 1129.62 425.811 1104.19 425.812C1102.89 425.812 1101.6 425.783 1100.3 425.724C1072.19 424.519 1048.86 411.044 1026.3 398.013C1020.42 394.617 1014.86 391.409 1009.27 388.451C1007.05 387.276 1004.82 386.088 1002.58 384.894C976.417 370.962 949.362 356.556 918.274 349.974C908.927 347.984 899.575 346.763 890.478 346.345C837.842 343.938 790.228 371.342 754.626 395.485C720.099 418.771 689.366 444.463 659.644 469.309C604.905 515.07 553.203 558.292 483.901 582.589C447.045 595.511 406.53 602.373 367.958 602.373Z" fill="url(#paint13_linear_14_2724)"/>
<path d="M349.185 608.109C345.082 608.109 341.008 608.028 336.953 607.865C311.391 606.835 287.14 602.584 264.874 595.23C240.542 587.193 218.548 575.421 199.502 560.239C141.443 514.293 110.915 447.644 81.3928 383.19C64.5603 346.441 48.6613 311.73 28.1945 281.441C25.8322 277.946 23.1546 273.983 20.3912 270.165C-37.8414 189.627 -120.141 150.553 -211.35 160.136C-317.329 171.549 -410.391 243.189 -485.168 300.752L-485.736 299.958C-442.686 266.817 -400.371 234.978 -356.028 209.712C-305.076 180.681 -257.783 164.143 -211.447 159.153C-164.148 154.182 -119.487 161.981 -78.7032 182.329C-59.5136 191.904 -41.2076 204.304 -24.2943 219.185C-7.85092 233.653 7.4404 250.605 21.1549 269.573C23.9272 273.404 26.6092 277.373 28.976 280.875C49.4885 311.231 65.4042 345.979 82.2545 382.767C111.728 447.114 142.205 513.653 200.082 559.454C282.058 624.799 399.025 612.986 474.279 583.014C542.551 555.824 592.672 509.819 645.736 461.114C676.36 433.005 708.026 403.939 744.115 377.959C767.893 360.756 788.297 348.792 808.328 340.308C834.243 329.332 858.457 324.718 882.347 326.2C891.68 326.781 901.248 328.249 910.786 330.562C943.008 338.345 970.669 354.832 997.42 370.777C999.233 371.858 1001.04 372.933 1002.83 373.999C1008.32 377.261 1013.78 380.776 1019.55 384.498C1042.24 399.118 1065.7 414.236 1094.26 416.06C1121.39 417.866 1148.24 405.711 1174.19 393.955C1179.28 391.652 1184.08 389.476 1188.9 387.395C1226.97 370.98 1266.32 359.851 1312.75 352.372C1353.12 345.869 1393.05 342.964 1441.04 339.842C1465.31 338.278 1489.91 334.985 1513.71 331.799C1540.49 328.213 1568.19 324.504 1595.4 323.278C1625.92 321.903 1652.63 323.865 1677.07 329.277C1705.42 335.561 1733.31 345.759 1760.27 355.622C1775.08 361.039 1790.4 366.64 1805.6 371.524C1857.77 388.264 1911.72 398.238 1970.55 402.015C2000.36 403.964 2030.47 404.552 2059.6 405.12L2060.27 405.133L2060.26 406.121L2059.58 406.108C2030.45 405.54 2000.32 404.952 1970.49 403.001C1911.59 399.219 1857.56 389.231 1805.32 372.467C1790.1 367.579 1774.78 361.974 1759.96 356.554C1733.02 346.703 1705.16 336.515 1676.87 330.243C1622.58 318.219 1567.29 325.621 1513.83 332.78C1490.02 335.967 1465.4 339.263 1441.1 340.828C1359.04 346.167 1274.19 351.688 1189.27 388.308C1184.45 390.386 1179.65 392.559 1174.57 394.861C1148.52 406.663 1121.57 418.869 1094.2 417.046C1065.4 415.207 1040.78 399.339 1019.05 385.337C1013.28 381.62 1007.83 378.109 1002.36 374.857C1000.56 373.79 998.758 372.715 996.945 371.634C970.254 355.725 942.655 339.274 910.569 331.524C901.083 329.224 891.569 327.764 882.29 327.186C828.149 323.826 780.297 352.988 744.661 378.77C708.617 404.717 676.972 433.764 646.369 461.854C593.239 510.62 543.055 556.682 474.622 583.937C435.152 599.656 391.066 608.108 349.185 608.109Z" fill="url(#paint14_linear_14_2724)"/>
<path d="M331.107 613.98C328.926 613.98 326.756 613.956 324.586 613.908C298.368 613.334 273.507 609.288 250.693 601.887C225.773 593.8 203.331 581.697 183.99 565.91C124.702 517.834 95.4348 447.082 67.1317 378.66C51.3384 340.479 36.4206 304.416 16.7885 272.849C14.3882 268.989 11.8213 264.888 9.15082 260.901C-48.1585 175.287 -131.472 133.256 -225.439 142.551C-333.366 153.48 -424.46 224.426 -504.83 287.02L-505.43 286.194C-459.698 250.577 -418.196 218.996 -373.388 193.2C-321.327 163.229 -272.964 146.325 -225.535 141.522C-176.936 136.716 -131.319 145.395 -89.9492 167.32C-70.4986 177.629 -52.0534 190.899 -35.1259 206.763C-18.6547 222.199 -3.48221 240.215 9.97095 260.312C12.6508 264.313 15.2228 268.423 17.6279 272.289C37.3054 303.93 52.2391 340.032 68.0498 378.253C96.3031 446.555 125.518 517.184 184.607 565.098C263.453 629.452 382.222 621.129 464.952 584.333C532.634 554.231 581.471 505.303 633.175 453.502C664.436 422.183 696.762 389.798 734.105 361.223C757.519 343.228 778.716 330.172 798.904 321.309C825.165 309.781 849.787 305.098 874.18 306.997C883.701 307.739 893.437 309.447 903.118 312.075C936.35 321.061 964.54 339.655 991.803 357.637C993.202 358.559 994.594 359.476 995.98 360.39C1001.36 363.932 1006.71 367.738 1012.38 371.766C1034.22 387.288 1058.96 404.881 1088.18 407.339C1115.91 409.742 1143.27 397.099 1169.74 384.873C1174.82 382.525 1179.62 380.306 1184.45 378.186C1222.93 361.265 1262.87 349.833 1310.14 342.208C1352.29 335.408 1395.05 332.472 1440.32 329.362L1440.96 329.319C1466.36 327.59 1492.11 323.833 1517.02 320.199C1543.94 316.273 1571.77 312.213 1599.12 310.723C1629.81 309.053 1656.68 310.865 1681.27 316.264C1709.85 322.547 1737.94 332.878 1765.1 342.869C1780.45 348.518 1796.33 354.359 1812.11 359.396C1865.2 376.339 1920.25 385.93 1980.4 388.72C2010.84 390.166 2041.6 390.125 2071.35 390.089L2072 390.088L2072.01 391.123L2071.35 391.123C2041.59 391.162 2010.82 391.2 1980.35 389.753C1920.12 386.96 1864.99 377.353 1811.81 360.385C1796.02 355.341 1780.13 349.496 1764.76 343.844C1737.64 333.864 1709.58 323.544 1681.06 317.276C1626.44 305.281 1570.89 313.386 1517.16 321.223C1492.23 324.859 1466.46 328.619 1441.02 330.351L1440.39 330.394C1348.38 336.714 1268.91 342.171 1184.84 379.137C1180.02 381.255 1175.22 383.471 1170.14 385.818C1145.79 397.068 1120.67 408.669 1095.11 408.67C1092.78 408.67 1090.44 408.572 1088.1 408.37C1058.62 405.89 1033.75 388.214 1011.82 372.619C1006.16 368.595 1000.81 364.795 995.446 361.262C994.058 360.349 992.666 359.431 991.268 358.509C964.07 340.57 935.947 322.02 902.866 313.075C893.243 310.463 883.567 308.765 874.105 308.027C817.854 303.65 767.603 336.766 734.699 362.055C697.407 390.588 665.106 422.95 633.869 454.245C607.788 480.374 583.155 505.054 555.9 527.637C525.024 553.22 496.25 571.538 465.345 585.283C423.552 603.872 376.138 613.979 331.107 613.98Z" fill="url(#paint15_linear_14_2724)"/>
<path d="M313.543 619.959C313.102 619.959 312.662 619.958 312.222 619.956C285.345 619.835 259.873 615.996 236.512 608.544C211.003 600.409 188.112 587.973 168.477 571.582C108.016 521.406 80.0668 446.581 53.0376 374.219C38.2282 334.573 24.2403 297.125 5.38046 264.256C3.0593 260.21 0.547333 255.881 -2.09274 251.637C-58.4538 160.947 -142.779 115.959 -239.532 124.966C-349.445 135.424 -442.445 208.667 -524.496 273.29L-525.127 272.43C-487.053 242.444 -439.669 205.126 -390.751 176.686C-337.584 145.777 -288.151 128.507 -239.626 123.89C-189.723 119.246 -143.149 128.808 -101.198 152.311C-81.4856 163.354 -62.9012 177.495 -45.9604 194.341C-29.4613 210.747 -14.4077 229.827 -1.21658 251.052C1.4324 255.311 3.95035 259.65 6.2767 263.704C25.1812 296.651 39.1842 334.14 54.0096 373.829C80.989 446.058 108.887 520.746 169.129 570.741C250.122 638.347 371.378 626.945 455.621 585.653C522.942 552.656 570.677 500.727 621.214 445.748C652.92 411.256 685.705 375.589 724.092 344.488C747.484 325.462 768.872 311.665 789.479 302.309C815.718 290.396 841.466 285.512 866.01 287.793C875.723 288.697 885.628 290.647 895.449 293.588C929.694 303.809 958.402 324.566 986.164 344.639L989.126 346.78C994.402 350.591 999.654 354.673 1005.22 358.994C1027.25 376.115 1052.22 395.52 1082.1 398.617C1110.27 401.599 1138.03 388.563 1164.87 375.955C1170.1 373.501 1175.04 371.182 1179.99 368.976C1217.95 351.886 1257.35 340.313 1303.98 332.556C1345.52 325.644 1387.57 322.625 1432.08 319.429L1440.87 318.797C1467.33 316.901 1494.16 312.673 1520.12 308.583C1547.2 304.317 1575.2 299.905 1602.74 298.154C1633.63 296.19 1660.7 297.857 1685.47 303.252C1714.31 309.539 1742.62 320.013 1770 330.143C1785.87 336.015 1802.28 342.088 1818.61 347.271C1872.63 364.417 1928.78 373.627 1990.25 375.427C2021.33 376.368 2052.73 375.702 2083.11 375.058L2083.73 375.045L2083.75 376.124L2083.13 376.138C2052.74 376.782 2021.32 377.448 1990.22 376.507C1960.56 375.638 1931.47 372.947 1903.77 368.507C1874.54 363.824 1845.79 357.026 1818.3 348.303C1801.96 343.113 1785.53 337.036 1769.65 331.16C1742.3 321.042 1714.03 310.581 1685.25 304.309C1630.24 292.326 1574.33 301.133 1520.27 309.652C1494.3 313.744 1467.44 317.976 1440.94 319.874L1432.15 320.506C1345.35 326.739 1263.35 332.626 1180.4 369.967C1175.46 372.17 1170.52 374.486 1165.3 376.939C1140.99 388.358 1115.92 400.128 1090.38 400.129C1087.59 400.129 1084.79 399.988 1081.99 399.691C1051.83 396.564 1026.73 377.063 1004.59 359.858C999.036 355.542 993.791 351.466 988.53 347.666L985.567 345.525C957.875 325.502 929.239 304.797 895.161 294.625C885.402 291.703 875.563 289.767 865.917 288.868C808.194 283.505 757.696 318.527 724.734 345.338C686.407 376.39 653.648 412.028 621.968 446.493C596.508 474.189 572.46 500.351 545.657 524.47C515.271 551.811 486.803 571.564 456.066 586.629C434.854 597.026 411.937 605.208 387.95 610.948C362.951 616.928 337.925 619.959 313.543 619.959Z" fill="url(#paint16_linear_14_2724)"/>
<path d="M296.418 626.026C239.966 626.026 190.426 609.196 152.965 577.253C91.3793 525.001 64.7912 446.126 39.0785 369.849C25.2106 328.709 12.1119 289.851 -6.02365 255.661C-7.98282 251.967 -10.5843 247.12 -13.3327 242.371C-68.7252 146.608 -154.062 98.6653 -253.621 107.379C-365.552 117.376 -460.441 192.913 -544.159 259.557L-544.82 258.665C-503.896 226.087 -457.511 189.162 -408.111 160.173C-353.841 128.326 -303.337 110.691 -253.713 106.258C-227.788 103.99 -202.452 105.602 -178.406 111.048C-155.302 116.282 -133.109 125.115 -112.443 137.302C-92.4687 149.082 -73.7447 164.092 -56.792 181.919C-40.2651 199.297 -25.3298 219.441 -12.4012 241.792C-9.64346 246.557 -7.0361 251.417 -5.07248 255.12C13.1073 289.392 26.2204 328.293 40.1039 369.478C65.7668 445.609 92.3042 524.332 153.654 576.384C236.366 646.913 363.33 631.314 446.294 586.974C513.436 551.089 560.209 496.089 609.729 437.86C641.729 400.232 674.819 361.322 714.081 327.752C737.461 307.695 759.042 293.157 780.056 283.309C806.64 270.85 832.812 265.898 857.843 268.589C867.744 269.655 877.817 271.845 887.783 275.1C923.041 286.585 953.564 310.592 980.496 331.774L982.274 333.172C987.448 337.24 992.603 341.585 998.06 346.185C1020.29 364.919 1045.48 386.153 1076.02 389.895C1104.78 393.476 1133.07 379.946 1160.44 366.862C1165.66 364.366 1170.59 362.007 1175.53 359.766C1213.34 342.457 1252.55 330.713 1298.92 322.808C1340.23 315.767 1381.97 312.659 1426.16 309.368C1431.01 309.007 1435.88 308.644 1440.79 308.274C1468.24 306.213 1496.09 301.506 1523.03 296.955C1550.31 292.347 1578.51 287.583 1606.26 285.571C1637.4 283.314 1664.68 284.84 1689.66 290.238C1718.79 296.536 1747.35 307.16 1774.97 317.435C1791.33 323.525 1808.26 329.822 1825.11 335.142C1880.07 352.495 1937.31 361.323 2000.1 362.132C2031.81 362.568 2063.87 361.274 2094.87 360.023L2095.46 359.999L2095.5 361.123L2094.91 361.147C2063.9 362.399 2031.83 363.693 2000.08 363.257C1969.8 362.867 1940.13 360.52 1911.9 356.28C1882.08 351.803 1852.78 345.053 1824.79 336.219C1807.92 330.89 1790.98 324.588 1774.6 318.494C1747.02 308.232 1718.49 297.621 1689.44 291.339C1633.97 279.353 1577.66 288.866 1523.21 298.065C1496.24 302.62 1468.36 307.33 1440.87 309.395C1435.96 309.765 1431.09 310.128 1426.24 310.49C1340.02 316.911 1258.58 322.975 1175.97 360.795C1171.03 363.033 1166.11 365.388 1160.89 367.883C1147.43 374.319 1133.52 380.974 1119.27 385.604C1103.09 390.863 1088.9 392.633 1075.89 391.013C1045.04 387.232 1019.72 365.888 997.375 347.058C991.925 342.464 986.776 338.124 981.617 334.067L979.839 332.669C952.979 311.543 922.535 287.599 887.457 276.172C877.56 272.941 867.559 270.765 857.732 269.707C812.695 264.866 767.267 283.585 714.773 328.619C675.577 362.132 642.516 401.008 610.543 438.603C586.72 466.616 562.087 495.583 535.661 521.261C506.094 549.994 477.024 571.815 446.791 587.973C425.347 599.434 401.999 608.566 377.394 615.116C351.411 622.034 325.327 625.698 299.866 626.005C298.714 626.019 297.564 626.026 296.418 626.026Z" fill="url(#paint17_linear_14_2724)"/>
<path d="M279.649 632.167C223.59 632.168 174.562 615.22 137.449 582.925C74.7775 528.619 49.5867 445.719 25.2262 365.549C12.2634 322.889 0.0198975 282.596 -17.4337 247.067C-20.1428 241.551 -22.4131 237.115 -24.5776 233.105C-78.1942 133.733 -166.814 81.496 -267.716 89.7935C-381.693 99.3383 -478.455 177.163 -563.827 245.827L-564.52 244.902C-522.736 211.295 -475.378 173.206 -425.477 143.66C-399.035 128.004 -374.187 116.029 -349.514 107.049C-322.087 97.0679 -294.597 90.8696 -267.806 88.6262C-241.227 86.4404 -215.308 88.3276 -190.767 94.2335C-167.193 99.9074 -144.626 109.348 -123.694 122.293C-103.457 134.809 -84.5938 150.691 -67.6288 169.498C-51.074 187.849 -36.2579 209.058 -23.5919 232.533C-21.4196 236.557 -19.143 241.006 -16.4265 246.535C1.0694 282.151 13.3267 322.49 26.3036 365.197C50.6159 445.206 75.7557 527.941 138.174 582.027C223.059 655.891 352.559 637.054 436.959 588.295C504.072 549.523 549.996 491.392 598.616 429.847C630.791 389.119 664.061 347.005 704.064 311.018C727.443 289.928 749.216 274.649 770.626 264.31C797.558 251.304 824.151 246.282 849.672 249.386C859.76 250.614 870.002 253.046 880.112 256.613C916.387 269.39 947.422 295.77 974.804 319.045L975.415 319.565C980.49 323.879 985.55 328.474 990.906 333.34C1013.32 353.702 1038.73 376.783 1069.94 381.175C1099.29 385.357 1129.41 370.7 1155.99 357.77C1161.21 355.232 1166.13 352.835 1171.07 350.557C1208.8 333.003 1247.91 321.077 1294.13 313.026C1335.3 305.856 1376.83 302.668 1420.8 299.293C1427.39 298.787 1434.02 298.278 1440.7 297.752C1469.09 295.525 1497.92 290.336 1525.8 285.318C1553.29 280.369 1581.72 275.251 1609.71 272.981C1641.13 270.432 1668.65 271.821 1693.86 277.227C1723.28 283.539 1752.11 294.32 1779.98 304.746C1796.83 311.048 1814.25 317.565 1831.6 323.017C1887.52 340.577 1945.86 349.033 2009.94 348.84C2042.3 348.77 2075 346.848 2106.62 344.989L2107.19 344.956L2107.25 346.125L2106.68 346.158C2075.04 348.018 2042.33 349.941 2009.94 350.011C1979.03 350.094 1948.78 348.096 1920.02 344.056C1889.62 339.785 1859.76 333.084 1831.28 324.137C1813.9 318.676 1796.46 312.154 1779.6 305.847C1751.76 295.434 1722.97 284.668 1693.63 278.373C1637.66 266.371 1580.89 276.589 1525.99 286.47C1498.09 291.494 1469.23 296.688 1440.78 298.918C1434.1 299.445 1427.47 299.953 1420.89 300.459C1335.05 307.048 1253.98 313.272 1171.53 351.625C1166.6 353.899 1161.68 356.294 1156.47 358.83C1142.77 365.495 1128.6 372.388 1114.07 377.133C1097.55 382.524 1083.06 384.226 1069.78 382.335C1038.24 377.895 1012.7 354.691 990.162 334.219C984.812 329.36 979.76 324.771 974.699 320.469L974.088 319.95C946.781 296.739 915.831 270.431 879.749 257.722C869.713 254.18 859.55 251.766 849.541 250.548C804.046 245.016 756.701 265.085 704.806 311.901C664.876 347.823 631.636 389.898 599.491 430.588C576.125 460.166 551.963 490.751 525.855 518.014C496.626 548.537 467.728 571.86 437.511 589.316C415.834 601.839 392.057 611.923 366.839 619.289C340.324 627.033 313.633 631.329 287.508 632.056C284.875 632.13 282.251 632.166 279.649 632.167Z" fill="url(#paint18_linear_14_2724)"/>
<path d="M263.175 638.369C207.402 638.371 158.773 621.277 121.934 588.596C58.2108 532.256 34.448 445.352 11.4674 361.31C-0.619537 317.108 -12.0356 275.358 -28.8409 238.472C-31.3651 232.932 -33.648 228.145 -35.8206 223.839C-88.4486 119.471 -178.109 64.2015 -281.808 72.2081C-397.858 81.3081 -496.48 161.417 -583.492 232.095L-584.217 231.138C-541.583 196.507 -493.259 157.255 -442.84 127.147C-415.886 111.051 -390.548 98.7707 -365.379 89.6037C-337.372 79.404 -309.285 73.143 -281.896 70.995C-254.663 68.8927 -228.161 71.0542 -203.125 77.4199C-179.079 83.5335 -156.139 93.582 -134.942 107.286C-114.441 120.539 -95.4392 137.292 -78.4635 157.077C-61.8813 176.405 -47.184 198.677 -34.78 223.275C-32.5996 227.597 -30.3096 232.397 -27.7791 237.952C-10.9322 274.929 0.496918 316.727 12.5972 360.978C35.5302 444.846 59.2437 531.57 122.697 587.67C205.895 661.48 339.073 644.519 427.629 589.618C494.834 547.953 539.995 486.637 587.809 421.719C620.063 377.927 653.416 332.643 694.051 294.285C746.345 244.808 794.579 223.839 841.503 230.183C851.779 231.573 862.189 234.246 872.444 238.128C909.734 252.222 940.986 280.771 968.56 305.958C973.54 310.507 978.507 315.343 983.765 320.461C1006.37 342.465 1031.99 367.406 1063.86 372.454C1093.79 377.236 1124.47 362.064 1151.54 348.678C1156.75 346.098 1161.68 343.662 1166.61 341.347C1204.33 323.529 1243.4 311.411 1289.56 303.213C1330.66 295.914 1372.07 292.653 1415.91 289.201C1423.97 288.566 1432.31 287.91 1440.61 287.229C1469.91 284.837 1499.67 279.161 1528.45 273.67C1556.18 268.38 1584.86 262.909 1613.11 260.38C1644.81 257.542 1672.6 258.795 1698.06 264.213C1727.79 270.544 1756.89 281.487 1785.04 292.07C1802.35 298.58 1820.26 305.311 1838.1 310.891C1894.97 328.66 1954.4 336.728 2019.79 335.546C2052.77 334.971 2086.1 332.422 2118.34 329.956L2118.91 329.913L2119 331.126L2118.43 331.169C2086.17 333.636 2052.82 336.187 2019.81 336.763C1988.27 337.329 1957.44 335.671 1928.14 331.83C1897.16 327.767 1866.75 321.114 1837.76 312.055C1819.89 306.467 1801.97 299.729 1784.64 293.214C1756.53 282.645 1727.47 271.717 1697.82 265.405C1641.31 253.378 1584.04 264.303 1528.66 274.867C1499.85 280.363 1470.06 286.046 1440.7 288.442C1432.4 289.123 1424.06 289.779 1416 290.414C1330.38 297.156 1249.51 303.525 1167.09 342.455C1162.17 344.765 1157.25 347.199 1152.04 349.776C1128.35 361.494 1101.9 374.573 1075.47 374.574C1071.54 374.574 1067.6 374.284 1063.68 373.657C1031.45 368.551 1005.69 343.474 982.961 321.348C977.709 316.236 972.749 311.407 967.784 306.871C940.288 281.754 909.124 253.286 872.041 239.27C861.866 235.419 851.541 232.768 841.351 231.389C794.791 225.097 746.865 245.962 694.841 295.183C654.284 333.468 620.965 378.707 588.742 422.456C565.785 453.626 542.045 485.857 516.207 514.727C487.265 547.065 458.488 571.903 428.231 590.661C406.632 604.051 381.755 615.395 356.288 623.464C329.242 632.033 301.945 636.961 275.156 638.109C271.131 638.283 267.131 638.369 263.175 638.369Z" fill="url(#paint19_linear_14_2724)"/>
<path d="M247.188 644.614C205.267 644.615 151.243 634.769 106.422 594.266C41.6741 535.907 19.3617 445.018 -2.21622 357.122C-13.4507 311.359 -24.0618 268.133 -40.2456 229.876C-42.6299 224.24 -44.8593 219.234 -47.0613 214.571C-98.688 105.21 -189.382 46.9116 -295.899 54.6216C-414.044 63.2846 -514.513 145.673 -603.156 218.363L-603.912 217.373C-558.31 179.978 -511.155 141.31 -460.202 110.633C-432.735 94.0976 -406.907 81.5117 -381.24 72.1573C-352.655 61.7379 -323.97 55.415 -295.984 53.3627C-268.096 51.344 -241.011 53.7806 -215.481 60.6052C-190.962 67.1594 -167.649 77.8158 -146.188 92.2777C-125.424 106.27 -106.283 123.893 -89.2965 144.657C-72.6868 164.961 -58.1087 188.297 -45.9668 214.017C-43.7574 218.696 -41.5209 223.717 -39.1296 229.369C-22.9057 267.722 -12.2823 310.996 -1.03555 356.811C20.496 444.519 42.7603 535.214 107.222 593.315C192.521 670.395 328.28 650.465 418.299 590.94C485.699 546.373 532.241 478.814 577.25 413.48C609.506 366.657 642.861 318.241 684.038 277.551C707.434 254.394 729.591 237.634 751.775 226.312C779.406 212.21 806.848 207.052 833.337 210.98C843.8 212.532 854.378 215.446 864.778 219.642C881.631 226.434 898.642 236.81 916.78 251.362C933.356 264.659 949.075 280.015 961.706 292.353C966.593 297.127 971.47 302.19 976.633 307.551C999.419 331.21 1025.25 358.026 1057.78 363.734C1088.3 369.12 1119.52 353.431 1147.07 339.589C1152.29 336.966 1157.22 334.49 1162.15 332.139C1199.92 314.038 1239.01 301.721 1285.17 293.375C1326.26 285.948 1367.62 282.619 1411.41 279.095C1420.9 278.33 1430.72 277.54 1440.53 276.707C1470.69 274.15 1501.35 267.982 1530.99 262.017C1558.98 256.384 1587.93 250.56 1616.45 247.774C1648.47 244.646 1676.53 245.767 1702.25 251.201C1732.32 257.553 1761.71 268.663 1790.14 279.407C1807.91 286.121 1826.28 293.064 1844.6 298.764C1902.42 316.745 1962.95 324.427 2029.63 322.253C2063.24 321.172 2097.22 317.995 2130.07 314.922L2130.64 314.869L2130.75 316.126L2130.18 316.18C2097.31 319.254 2063.32 322.433 2029.67 323.515C1997.52 324.563 1966.09 323.248 1936.27 319.605C1904.7 315.75 1873.75 309.144 1844.25 299.973C1825.89 294.262 1807.51 287.313 1789.72 280.592C1761.34 269.865 1731.98 258.771 1702.01 252.438C1644.92 240.377 1587.12 252.008 1531.22 263.256C1501.55 269.228 1470.86 275.403 1440.63 277.965C1430.82 278.799 1421 279.589 1411.5 280.354C1325.97 287.238 1245.17 293.74 1162.66 333.286C1157.74 335.631 1152.81 338.105 1147.6 340.725C1119.89 354.65 1088.48 370.435 1057.57 364.979C1024.66 359.203 998.686 332.235 975.77 308.443C970.613 303.089 965.743 298.032 960.87 293.272C934.822 267.828 902.405 236.161 864.335 220.819C854.022 216.658 843.534 213.769 833.163 212.23C785.543 205.171 737.04 226.834 684.878 278.465C643.784 319.072 610.463 367.439 578.241 414.213C555.654 446.999 532.298 480.901 506.691 511.398C477.996 545.574 449.296 571.941 418.954 592.005C373.477 622.076 316.565 641.088 262.811 644.165C257.839 644.449 252.612 644.614 247.188 644.614Z" fill="url(#paint20_linear_14_2724)"/>
<path d="M231.128 650.914C208.062 650.914 186.108 647.878 165.634 641.844C137.164 633.455 112.023 619.355 90.9092 599.937C25.1611 539.573 4.31937 444.717 -15.8363 352.984C-26.2391 305.641 -36.0643 260.923 -51.65 221.28C-53.9032 215.55 -56.0788 210.324 -58.3009 205.305C-108.915 90.952 -200.655 29.6204 -309.99 37.0364C-430.252 45.2673 -532.276 129.7 -622.289 204.193L-622.82 204.632L-623.607 203.61L-623.077 203.17C-576.769 164.847 -528.884 125.218 -477.266 93.9403C-449.34 77.0187 -423.067 64.1677 -396.943 54.6528C-367.832 44.0503 -338.605 37.6839 -310.073 35.7309C-281.528 33.7956 -253.861 36.507 -227.837 43.7914C-202.846 50.7869 -179.159 62.0508 -157.434 77.2703C-136.406 92.0023 -117.126 110.496 -100.129 132.237C-83.4931 153.519 -69.0338 177.919 -57.154 204.759C-54.9239 209.796 -52.7412 215.039 -50.4813 220.786C-34.8562 260.528 -25.0196 305.296 -14.6056 352.693C5.50552 444.224 26.3016 538.873 91.7464 598.958C178.228 678.494 319.733 654.871 408.97 592.264C476.648 544.782 522.525 473.79 566.892 405.137C599.087 355.318 632.378 303.802 674.025 260.818C697.438 236.627 719.787 219.125 742.349 207.313C770.331 192.663 798.197 187.435 825.169 191.777C835.82 193.492 846.567 196.648 857.111 201.157C874.25 208.481 891.455 219.564 909.71 235.039C925.653 248.555 940.161 263.427 954.852 278.748C959.715 283.792 964.57 289.14 969.71 294.804C992.623 320.047 1018.59 348.658 1051.7 355.014C1082.8 361.005 1114.57 344.797 1142.6 330.498C1147.83 327.833 1152.76 325.316 1157.69 322.929C1195.55 304.532 1234.71 292.008 1280.93 283.516C1322.07 275.958 1363.44 272.566 1407.23 268.974C1418.05 268.087 1429.24 267.169 1440.44 266.184C1471.45 263.462 1502.96 256.799 1533.45 250.356C1561.71 244.382 1590.94 238.204 1619.75 235.16C1652.1 231.744 1680.46 232.734 1706.45 238.187C1736.85 244.565 1766.55 255.844 1795.27 266.752C1813.48 273.668 1832.31 280.818 1851.1 286.637C1909.88 304.829 1971.5 312.13 2039.48 308.959C2073.72 307.372 2108.32 303.568 2141.79 299.889L2142.37 299.825L2142.5 301.126L2141.92 301.189C2108.44 304.87 2073.81 308.677 2039.54 310.266C2006.76 311.794 1974.75 310.823 1944.4 307.379C1912.25 303.732 1880.74 297.175 1850.74 287.89C1831.91 282.06 1813.06 274.903 1794.84 267.981C1766.16 257.089 1736.51 245.827 1706.2 239.469C1648.51 227.368 1590.15 239.706 1533.7 251.637C1503.18 258.088 1471.63 264.759 1440.55 267.487C1429.34 268.473 1418.15 269.39 1407.33 270.277C1321.76 277.295 1240.93 283.923 1158.22 324.114C1153.31 326.495 1148.38 329.009 1143.16 331.671C1119.11 343.939 1092.33 357.602 1065.42 357.602C1060.77 357.603 1056.12 357.194 1051.47 356.299C1017.96 349.865 991.836 321.088 968.791 295.699C963.658 290.043 958.809 284.702 953.958 279.671C922.215 246.566 892.982 217.9 856.63 202.365C846.178 197.895 835.528 194.767 824.976 193.068C776.981 185.344 726.496 208.45 674.916 261.744C633.357 304.636 600.101 356.097 567.94 405.864C545.693 440.289 522.69 475.886 497.284 508.027C468.799 544.063 440.143 571.971 409.677 593.346C363.751 625.566 305.723 646.296 250.469 650.217C243.945 650.682 237.492 650.913 231.128 650.914Z" fill="url(#paint21_linear_14_2724)"/>
<path d="M215.475 657.277C192.972 657.277 171.524 654.348 151.474 648.52C122.403 640.071 96.8078 625.632 75.3965 605.607C8.74246 543.319 -10.5897 444.627 -29.2855 349.184C-38.8938 300.131 -47.9698 253.799 -63.0536 212.684C-65.0992 207.073 -67.2815 201.472 -69.5407 196.036C-119.132 76.6951 -211.911 12.3306 -324.081 19.4496C-446.484 27.2546 -549.846 113.554 -641.041 189.694L-642.483 190.899L-643.303 189.845L-641.86 188.641C-594.978 149.498 -546.501 109.022 -494.114 77.1122C-465.767 59.8451 -439.08 46.7586 -412.528 37.1053C-382.933 26.345 -353.202 19.9505 -324.161 18.0987C-294.961 16.2461 -266.71 19.2333 -240.192 26.9772C-214.728 34.4136 -190.668 46.2854 -168.68 62.2624C-147.388 77.7343 -127.969 97.0987 -110.962 119.818C-94.2996 142.077 -79.9595 167.541 -68.3412 195.501C-66.0746 200.956 -63.8844 206.576 -61.8329 212.204C-46.7116 253.421 -37.6248 299.806 -28.0061 348.914C-9.35226 444.143 9.93649 542.613 76.2712 604.602C164.984 687.575 309.09 660.854 399.64 593.588C467.755 543.236 513.015 468.716 556.786 396.648C588.838 343.874 621.981 289.304 664.013 244.086C687.121 219.212 710.306 200.447 732.923 188.314C761.257 173.115 789.546 167.819 817.003 172.575C827.841 174.452 838.756 177.849 849.446 182.673C886.726 199.488 917.335 231.279 947.996 265.144C952.739 270.368 957.476 275.893 962.491 281.743C985.605 308.704 1011.8 339.262 1045.62 346.293C1077.3 352.893 1109.62 336.167 1138.13 321.409C1143.36 318.703 1148.3 316.144 1153.23 313.721C1191.22 295.016 1230.49 282.279 1276.82 273.638C1318.05 265.95 1359.47 262.497 1403.32 258.842C1415.38 257.837 1427.85 256.797 1440.36 255.662C1472.17 252.776 1504.53 245.615 1535.83 238.691C1564.37 232.374 1593.89 225.843 1623.01 222.544C1655.7 218.839 1684.36 219.7 1710.65 225.175C1741.39 231.58 1771.41 243.034 1800.43 254.11C1819.07 261.222 1838.35 268.578 1857.6 274.511C1917.34 292.915 1980.05 299.835 2049.33 295.667C2084.19 293.574 2119.43 289.142 2153.51 284.856L2154.09 284.782L2154.25 286.126L2153.66 286.199C2119.56 290.488 2084.3 294.923 2049.41 297.017C2016.01 299.026 1983.41 298.399 1952.53 295.153C1919.79 291.714 1887.73 285.204 1857.23 275.808C1837.94 269.862 1818.64 262.499 1799.98 255.379C1771 244.321 1741.04 232.886 1710.39 226.502C1652.08 214.354 1593.12 227.398 1536.1 240.014C1504.77 246.947 1472.37 254.116 1440.47 257.009C1427.96 258.146 1415.49 259.185 1403.43 260.19C1317.72 267.334 1236.77 274.081 1153.79 314.943C1148.87 317.362 1143.93 319.916 1138.71 322.62C1114.47 335.168 1087.49 349.13 1060.34 349.13C1055.35 349.13 1050.35 348.659 1045.37 347.62C1011.12 340.498 984.765 309.761 961.515 282.641C956.506 276.799 951.776 271.281 947.045 266.07C916.48 232.311 885.977 200.625 848.924 183.913C838.332 179.134 827.52 175.768 816.787 173.909C767.763 165.419 716.68 189.345 664.953 245.024C623.014 290.143 589.908 344.652 557.891 397.368C535.959 433.479 513.28 470.82 488.039 504.637C459.727 542.568 431.06 572.024 400.4 594.688C354.094 629.086 294.959 651.548 238.159 656.314C230.49 656.956 222.925 657.277 215.475 657.277Z" fill="url(#paint22_linear_14_2724)"/>
<path d="M199.797 663.605C177.848 663.605 156.912 660.783 137.292 655.166C107.632 646.674 81.5872 631.908 59.882 611.277C-7.8042 546.942 -25.6587 444.205 -42.9247 344.85C-51.7104 294.294 -60.0093 246.542 -74.4593 204.087C-118.004 76.149 -210.155 1.40627 -322.808 1.40627C-327.896 1.40627 -333.005 1.55786 -338.174 1.86412C-462.74 9.24783 -567.461 97.4322 -659.854 175.235L-662.149 177.167L-663 176.082L-660.706 174.15C-613.242 134.181 -564.161 92.8506 -510.995 60.3005C-482.221 42.684 -455.116 29.359 -428.131 19.5649C-398.046 8.64456 -367.806 2.21964 -338.251 0.467882C-306.947 -1.38853 -276.8 2.28504 -248.652 11.3863C-221.663 20.1116 -196.389 33.854 -173.531 52.2323C-129.562 87.5838 -94.8636 139.934 -73.187 203.622C-58.7006 246.184 -50.3932 293.99 -41.5972 344.602C-24.3701 443.729 -6.55676 546.231 60.7941 610.246C98.8852 646.452 148.655 662.011 200.395 662.011C267.365 662.011 337.65 635.966 390.31 594.912C458.748 541.558 503.429 463.581 546.638 388.172C578.567 332.451 611.582 274.832 653.999 227.354C706.209 168.914 758.303 144.023 808.835 153.372C833.502 157.936 857.479 170.111 882.136 190.591C903.711 208.511 923.115 230.526 941.139 251.54C945.765 256.932 950.385 262.619 955.277 268.64C978.588 297.335 1005.01 329.859 1039.54 337.574C1071.8 344.781 1104.66 327.536 1133.64 312.321C1138.88 309.572 1143.83 306.975 1148.77 304.513C1186.92 285.489 1226.33 272.534 1272.82 263.745C1314.17 255.925 1355.69 252.415 1399.64 248.699C1412.86 247.581 1426.53 246.426 1440.27 245.14C1472.88 242.089 1506.05 234.429 1538.14 227.022C1566.98 220.363 1596.81 213.478 1626.24 209.922C1659.28 205.93 1688.26 206.663 1714.85 212.163C1745.95 218.598 1776.28 230.228 1805.62 241.474C1824.68 248.783 1844.4 256.34 1864.1 262.385C1924.8 281.002 1988.61 287.54 2059.18 282.374C2094.65 279.777 2130.52 274.718 2165.2 269.827L2165.82 269.741L2166 271.126L2165.39 271.213C2130.68 276.108 2094.79 281.17 2059.27 283.77C2025.25 286.261 1992.07 285.978 1960.65 282.929C1927.34 279.697 1894.72 273.237 1863.72 263.727C1843.97 257.668 1824.24 250.103 1805.15 242.786C1775.86 231.558 1745.58 219.948 1714.58 213.535C1655.62 201.335 1596.04 215.087 1538.43 228.388C1506.31 235.805 1473.08 243.475 1440.39 246.534C1426.65 247.82 1412.97 248.976 1399.75 250.093C1313.84 257.358 1232.68 264.219 1149.35 305.774C1144.43 308.229 1139.49 310.823 1134.25 313.57C1109.81 326.4 1082.63 340.665 1055.22 340.667C1049.9 340.667 1044.58 340.13 1039.26 338.943C1004.27 331.127 977.695 298.408 954.244 269.542C949.359 263.528 944.743 257.848 940.131 252.47C900.702 206.504 860.972 164.442 808.598 154.75C758.548 145.49 706.867 170.237 654.989 228.306C612.67 275.674 579.691 333.228 547.799 388.888C526.163 426.647 503.791 465.691 478.714 501.175C450.578 540.989 421.926 572.016 391.122 596.031C344.302 632.531 284.042 656.696 225.794 662.329C216.989 663.179 208.315 663.604 199.797 663.605Z" fill="url(#paint23_linear_14_2724)"/>
</g>
<defs>
<linearGradient id="paint0_linear_14_2724" x1="-210.012" y1="504.125" x2="1896" y2="504.125" gradientUnits="userSpaceOnUse">
<stop stop-color="#00B8DB"/>
<stop offset="1" stop-color="#155DFC"/>
</linearGradient>
<linearGradient id="paint1_linear_14_2724" x1="-229.707" y1="489.297" x2="1907.73" y2="489.297" gradientUnits="userSpaceOnUse">
<stop stop-color="#00B8DB"/>
<stop offset="1" stop-color="#155DFC"/>
</linearGradient>
<linearGradient id="paint2_linear_14_2724" x1="-249.398" y1="475.514" x2="1919.47" y2="475.514" gradientUnits="userSpaceOnUse">
<stop stop-color="#00B8DB"/>
<stop offset="1" stop-color="#155DFC"/>
</linearGradient>
<linearGradient id="paint3_linear_14_2724" x1="-269.093" y1="463.414" x2="1931.21" y2="463.414" gradientUnits="userSpaceOnUse">
<stop stop-color="#00B8DB"/>
<stop offset="1" stop-color="#155DFC"/>
</linearGradient>
<linearGradient id="paint4_linear_14_2724" x1="-288.785" y1="452.643" x2="1942.95" y2="452.643" gradientUnits="userSpaceOnUse">
<stop stop-color="#00B8DB"/>
<stop offset="1" stop-color="#155DFC"/>
</linearGradient>
<linearGradient id="paint5_linear_14_2724" x1="-308.482" y1="443.119" x2="1954.68" y2="443.119" gradientUnits="userSpaceOnUse">
<stop stop-color="#00B8DB"/>
<stop offset="1" stop-color="#155DFC"/>
</linearGradient>
<linearGradient id="paint6_linear_14_2724" x1="-328.176" y1="434.576" x2="1966.42" y2="434.576" gradientUnits="userSpaceOnUse">
<stop stop-color="#00B8DB"/>
<stop offset="1" stop-color="#155DFC"/>
</linearGradient>
<linearGradient id="paint7_linear_14_2724" x1="-347.869" y1="426.898" x2="1978.16" y2="426.898" gradientUnits="userSpaceOnUse">
<stop stop-color="#00B8DB"/>
<stop offset="1" stop-color="#155DFC"/>
</linearGradient>
<linearGradient id="paint8_linear_14_2724" x1="-367.566" y1="419.842" x2="1989.89" y2="419.842" gradientUnits="userSpaceOnUse">
<stop stop-color="#00B8DB"/>
<stop offset="1" stop-color="#155DFC"/>
</linearGradient>
<linearGradient id="paint9_linear_14_2724" x1="-387.262" y1="413.217" x2="2001.62" y2="413.217" gradientUnits="userSpaceOnUse">
<stop stop-color="#00B8DB"/>
<stop offset="1" stop-color="#155DFC"/>
</linearGradient>
<linearGradient id="paint10_linear_14_2724" x1="-406.955" y1="406.873" x2="2013.35" y2="406.873" gradientUnits="userSpaceOnUse">
<stop stop-color="#00B8DB"/>
<stop offset="1" stop-color="#155DFC"/>
</linearGradient>
<linearGradient id="paint11_linear_14_2724" x1="-426.65" y1="400.71" x2="2025.08" y2="400.71" gradientUnits="userSpaceOnUse">
<stop stop-color="#00B8DB"/>
<stop offset="1" stop-color="#155DFC"/>
</linearGradient>
<linearGradient id="paint12_linear_14_2724" x1="-446.346" y1="394.659" x2="2036.81" y2="394.659" gradientUnits="userSpaceOnUse">
<stop stop-color="#00B8DB"/>
<stop offset="1" stop-color="#155DFC"/>
</linearGradient>
<linearGradient id="paint13_linear_14_2724" x1="-466.039" y1="388.758" x2="2048.55" y2="388.758" gradientUnits="userSpaceOnUse">
<stop stop-color="#00B8DB"/>
<stop offset="1" stop-color="#155DFC"/>
</linearGradient>
<linearGradient id="paint14_linear_14_2724" x1="-485.736" y1="382.905" x2="2060.27" y2="382.905" gradientUnits="userSpaceOnUse">
<stop stop-color="#00B8DB"/>
<stop offset="1" stop-color="#155DFC"/>
</linearGradient>
<linearGradient id="paint15_linear_14_2724" x1="-505.43" y1="377.108" x2="2072.01" y2="377.108" gradientUnits="userSpaceOnUse">
<stop stop-color="#00B8DB"/>
<stop offset="1" stop-color="#155DFC"/>
</linearGradient>
<linearGradient id="paint16_linear_14_2724" x1="-525.127" y1="371.355" x2="2083.75" y2="371.355" gradientUnits="userSpaceOnUse">
<stop stop-color="#00B8DB"/>
<stop offset="1" stop-color="#155DFC"/>
</linearGradient>
<linearGradient id="paint17_linear_14_2724" x1="-544.82" y1="365.644" x2="2095.5" y2="365.644" gradientUnits="userSpaceOnUse">
<stop stop-color="#00B8DB"/>
<stop offset="1" stop-color="#155DFC"/>
</linearGradient>
<linearGradient id="paint18_linear_14_2724" x1="-564.52" y1="359.956" x2="2107.25" y2="359.956" gradientUnits="userSpaceOnUse">
<stop stop-color="#00B8DB"/>
<stop offset="1" stop-color="#155DFC"/>
</linearGradient>
<linearGradient id="paint19_linear_14_2724" x1="-584.217" y1="354.293" x2="2119" y2="354.293" gradientUnits="userSpaceOnUse">
<stop stop-color="#00B8DB"/>
<stop offset="1" stop-color="#155DFC"/>
</linearGradient>
<linearGradient id="paint20_linear_14_2724" x1="-603.912" y1="348.645" x2="2130.75" y2="348.645" gradientUnits="userSpaceOnUse">
<stop stop-color="#00B8DB"/>
<stop offset="1" stop-color="#155DFC"/>
</linearGradient>
<linearGradient id="paint21_linear_14_2724" x1="-623.607" y1="343.02" x2="2142.5" y2="343.02" gradientUnits="userSpaceOnUse">
<stop stop-color="#00B8DB"/>
<stop offset="1" stop-color="#155DFC"/>
</linearGradient>
<linearGradient id="paint22_linear_14_2724" x1="-643.303" y1="337.422" x2="2154.25" y2="337.422" gradientUnits="userSpaceOnUse">
<stop stop-color="#00B8DB"/>
<stop offset="1" stop-color="#155DFC"/>
</linearGradient>
<linearGradient id="paint23_linear_14_2724" x1="-663" y1="331.802" x2="2166" y2="331.802" gradientUnits="userSpaceOnUse">
<stop stop-color="#00B8DB"/>
<stop offset="1" stop-color="#155DFC"/>
</linearGradient>
</defs>
</svg>
