<svg xmlns="http://www.w3.org/2000/svg" xmlns:xlink="http://www.w3.org/1999/xlink" width="150" zoomAndPan="magnify" viewBox="0 0 112.5 37.5" height="50" preserveAspectRatio="xMidYMid meet" version="1.0"><defs><g/><clipPath id="f5fa6e901e"><path d="M 0.652344 7 L 21 7 L 21 21 L 0.652344 21 Z M 0.652344 7 " clip-rule="nonzero"/></clipPath><clipPath id="26c64bdc7b"><rect x="0" width="49" y="0" height="28"/></clipPath><clipPath id="876cfbe615"><path d="M 0.152344 6 L 11 6 L 11 25 L 0.152344 25 Z M 0.152344 6 " clip-rule="nonzero"/></clipPath><clipPath id="0d3b146a94"><rect x="0" width="50" y="0" height="34"/></clipPath><clipPath id="9c3ddb37db"><path d="M 0.625 1 L 6 1 L 6 5 L 0.625 5 Z M 0.625 1 " clip-rule="nonzero"/></clipPath><clipPath id="a57fb90741"><rect x="0" width="36" y="0" height="7"/></clipPath></defs><g transform="matrix(1, 0, 0, 1, 6, 3)"><g clip-path="url(#26c64bdc7b)"><g clip-path="url(#f5fa6e901e)"><g fill="#ffffff" fill-opacity="1"><g transform="translate(0.707739, 19.96833)"><g><path d="M 4.125 -6.078125 C 5.113281 -7.742188 6.21875 -9.210938 7.4375 -10.484375 C 8.664062 -11.753906 9.785156 -12.390625 10.796875 -12.390625 C 11.335938 -12.390625 11.726562 -12.210938 11.96875 -11.859375 C 12.21875 -11.515625 12.34375 -11.109375 12.34375 -10.640625 C 12.34375 -9.929688 12.160156 -8.941406 11.796875 -7.671875 L 11.09375 -5.296875 L 11.140625 -5.234375 C 12.304688 -7.316406 13.519531 -9.03125 14.78125 -10.375 C 16.050781 -11.71875 17.238281 -12.390625 18.34375 -12.390625 C 18.6875 -12.390625 19.015625 -12.25 19.328125 -11.96875 C 19.640625 -11.695312 19.796875 -11.234375 19.796875 -10.578125 C 19.796875 -10.378906 19.769531 -10.125 19.71875 -9.8125 C 19.664062 -9.507812 19.613281 -9.238281 19.5625 -9 L 17.828125 -2.921875 C 17.785156 -2.816406 17.71875 -2.601562 17.625 -2.28125 C 17.539062 -1.957031 17.5 -1.710938 17.5 -1.546875 C 17.5 -1.222656 17.597656 -1.0625 17.796875 -1.0625 C 18.023438 -1.0625 18.34375 -1.273438 18.75 -1.703125 C 19.15625 -2.140625 19.5 -2.546875 19.78125 -2.921875 L 20.125 -2.609375 C 19.613281 -1.828125 18.992188 -1.140625 18.265625 -0.546875 C 17.535156 0.0351562 16.898438 0.328125 16.359375 0.328125 C 16.160156 0.328125 15.953125 0.238281 15.734375 0.0625 C 15.515625 -0.101562 15.40625 -0.394531 15.40625 -0.8125 C 15.40625 -1.332031 15.566406 -2.175781 15.890625 -3.34375 L 17.328125 -8.375 C 17.546875 -9.101562 17.65625 -9.675781 17.65625 -10.09375 C 17.65625 -10.3125 17.597656 -10.492188 17.484375 -10.640625 C 17.367188 -10.796875 17.21875 -10.875 17.03125 -10.875 C 16.457031 -10.875 15.835938 -10.554688 15.171875 -9.921875 C 14.515625 -9.296875 13.804688 -8.4375 13.046875 -7.34375 C 12.359375 -6.375 11.769531 -5.4375 11.28125 -4.53125 C 10.789062 -3.625 10.472656 -2.921875 10.328125 -2.421875 C 9.878906 -0.953125 9.640625 -0.144531 9.609375 0 L 7.5625 0 L 9.765625 -7.75 C 9.859375 -8.039062 9.960938 -8.425781 10.078125 -8.90625 C 10.191406 -9.382812 10.25 -9.78125 10.25 -10.09375 C 10.25 -10.320312 10.179688 -10.503906 10.046875 -10.640625 C 9.910156 -10.773438 9.753906 -10.84375 9.578125 -10.84375 C 9.035156 -10.84375 8.382812 -10.507812 7.625 -9.84375 C 6.863281 -9.175781 6.101562 -8.273438 5.34375 -7.140625 C 4.757812 -6.285156 4.296875 -5.519531 3.953125 -4.84375 C 3.609375 -4.164062 3.265625 -3.265625 2.921875 -2.140625 C 2.546875 -0.859375 2.347656 -0.144531 2.328125 0 L 0.25 0 L 2.90625 -9.296875 C 3.0625 -9.847656 3.140625 -10.25 3.140625 -10.5 C 3.140625 -11.070312 2.84375 -11.359375 2.25 -11.359375 C 1.882812 -11.359375 1.585938 -11.320312 1.359375 -11.25 L 1.359375 -11.75 L 5.390625 -12.390625 L 5.890625 -12.390625 L 4.0625 -6.125 Z M 4.125 -6.078125 "/></g></g></g></g><g fill="#ffffff" fill-opacity="1"><g transform="translate(19.725403, 19.96833)"><g><path d="M 6.453125 -17.828125 C 6.835938 -17.828125 7.164062 -17.6875 7.4375 -17.40625 C 7.707031 -17.132812 7.84375 -16.820312 7.84375 -16.46875 C 7.84375 -16.082031 7.707031 -15.753906 7.4375 -15.484375 C 7.164062 -15.210938 6.835938 -15.078125 6.453125 -15.078125 C 6.085938 -15.078125 5.769531 -15.210938 5.5 -15.484375 C 5.226562 -15.753906 5.09375 -16.082031 5.09375 -16.46875 C 5.09375 -16.820312 5.226562 -17.132812 5.5 -17.40625 C 5.769531 -17.6875 6.085938 -17.828125 6.453125 -17.828125 Z M 3.796875 -2.421875 C 3.648438 -1.941406 3.578125 -1.613281 3.578125 -1.4375 C 3.578125 -1.144531 3.734375 -1 4.046875 -1 C 4.253906 -1 4.550781 -1.164062 4.9375 -1.5 C 5.332031 -1.832031 5.738281 -2.328125 6.15625 -2.984375 L 6.59375 -2.71875 C 6 -1.789062 5.328125 -1.050781 4.578125 -0.5 C 3.835938 0.0507812 3.160156 0.328125 2.546875 0.328125 C 2.179688 0.328125 1.90625 0.210938 1.71875 -0.015625 C 1.53125 -0.253906 1.4375 -0.570312 1.4375 -0.96875 C 1.4375 -1.257812 1.488281 -1.597656 1.59375 -1.984375 L 3.765625 -9.4375 C 3.890625 -9.894531 3.953125 -10.210938 3.953125 -10.390625 C 3.953125 -10.617188 3.867188 -10.820312 3.703125 -11 C 3.546875 -11.1875 3.304688 -11.28125 2.984375 -11.28125 C 2.859375 -11.28125 2.515625 -11.234375 1.953125 -11.140625 L 2.09375 -11.609375 L 6.21875 -12.390625 L 6.671875 -12.390625 Z M 3.796875 -2.421875 "/></g></g></g><g fill="#ffffff" fill-opacity="1"><g transform="translate(25.178399, 19.96833)"><g><path d="M 7.859375 -12.390625 C 8.734375 -12.390625 9.539062 -12.128906 10.28125 -11.609375 L 13.859375 -11.609375 L 13.421875 -10.125 L 11.25 -10.125 C 11.414062 -9.6875 11.5 -9.25 11.5 -8.8125 C 11.5 -8.039062 11.269531 -7.296875 10.8125 -6.578125 C 10.351562 -5.859375 9.710938 -5.273438 8.890625 -4.828125 C 8.066406 -4.378906 7.140625 -4.132812 6.109375 -4.09375 C 5.617188 -3.9375 5.171875 -3.722656 4.765625 -3.453125 C 4.359375 -3.191406 4.15625 -2.9375 4.15625 -2.6875 C 4.15625 -2.4375 4.316406 -2.242188 4.640625 -2.109375 C 4.960938 -1.972656 5.613281 -1.773438 6.59375 -1.515625 C 6.71875 -1.492188 6.90625 -1.453125 7.15625 -1.390625 C 9.582031 -0.785156 10.796875 0.207031 10.796875 1.59375 C 10.796875 2.34375 10.535156 3.015625 10.015625 3.609375 C 9.503906 4.203125 8.796875 4.675781 7.890625 5.03125 C 6.984375 5.382812 5.972656 5.5625 4.859375 5.5625 C 3.429688 5.5625 2.222656 5.300781 1.234375 4.78125 C 0.242188 4.269531 -0.25 3.582031 -0.25 2.71875 C -0.25 2.457031 -0.191406 2.203125 -0.078125 1.953125 C 0.0234375 1.703125 0.3125 1.351562 0.78125 0.90625 C 1.25 0.46875 1.972656 -0.0546875 2.953125 -0.671875 C 2.523438 -0.960938 2.3125 -1.328125 2.3125 -1.765625 C 2.3125 -2.253906 2.515625 -2.671875 2.921875 -3.015625 C 3.335938 -3.359375 4.007812 -3.78125 4.9375 -4.28125 C 4.070312 -4.550781 3.390625 -4.957031 2.890625 -5.5 C 2.390625 -6.039062 2.140625 -6.722656 2.140625 -7.546875 C 2.140625 -8.441406 2.421875 -9.257812 2.984375 -10 C 3.546875 -10.75 4.269531 -11.332031 5.15625 -11.75 C 6.039062 -12.175781 6.941406 -12.390625 7.859375 -12.390625 Z M 4.421875 -6.828125 C 4.421875 -6.378906 4.566406 -5.921875 4.859375 -5.453125 C 5.160156 -4.984375 5.613281 -4.75 6.21875 -4.75 C 6.832031 -4.75 7.367188 -5.023438 7.828125 -5.578125 C 8.285156 -6.140625 8.632812 -6.820312 8.875 -7.625 C 9.125 -8.4375 9.25 -9.1875 9.25 -9.875 C 9.25 -10.414062 9.117188 -10.859375 8.859375 -11.203125 C 8.597656 -11.546875 8.203125 -11.71875 7.671875 -11.71875 C 6.929688 -11.71875 6.316406 -11.414062 5.828125 -10.8125 C 5.335938 -10.21875 4.976562 -9.53125 4.75 -8.75 C 4.53125 -7.976562 4.421875 -7.335938 4.421875 -6.828125 Z M 1.359375 2.515625 C 1.359375 3.242188 1.726562 3.820312 2.46875 4.25 C 3.207031 4.6875 4.066406 4.90625 5.046875 4.90625 C 5.617188 4.90625 6.222656 4.816406 6.859375 4.640625 C 7.492188 4.472656 8.035156 4.203125 8.484375 3.828125 C 8.941406 3.460938 9.171875 3 9.171875 2.4375 C 9.171875 2.007812 8.992188 1.644531 8.640625 1.34375 C 8.285156 1.039062 7.863281 0.800781 7.375 0.625 C 6.882812 0.457031 6.21875 0.265625 5.375 0.046875 C 4.46875 -0.160156 3.832031 -0.335938 3.46875 -0.484375 C 2.820312 -0.015625 2.304688 0.441406 1.921875 0.890625 C 1.546875 1.347656 1.359375 1.890625 1.359375 2.515625 Z M 1.359375 2.515625 "/></g></g></g><g fill="#ffffff" fill-opacity="1"><g transform="translate(36.844015, 19.96833)"><g><path d="M 6.40625 -12.390625 C 7.050781 -12.390625 7.664062 -12.238281 8.25 -11.9375 C 8.570312 -11.789062 8.796875 -11.71875 8.921875 -11.71875 C 9.265625 -11.71875 9.546875 -11.941406 9.765625 -12.390625 L 10.25 -12.390625 L 9.515625 -8.265625 L 9.03125 -8.265625 C 9.03125 -9.441406 8.800781 -10.328125 8.34375 -10.921875 C 7.882812 -11.523438 7.316406 -11.828125 6.640625 -11.828125 C 6.148438 -11.828125 5.75 -11.671875 5.4375 -11.359375 C 5.125 -11.054688 4.96875 -10.710938 4.96875 -10.328125 C 4.96875 -9.898438 5.09375 -9.460938 5.34375 -9.015625 C 5.59375 -8.578125 5.988281 -7.992188 6.53125 -7.265625 C 7.144531 -6.472656 7.613281 -5.773438 7.9375 -5.171875 C 8.269531 -4.578125 8.4375 -3.957031 8.4375 -3.3125 C 8.4375 -2.695312 8.269531 -2.113281 7.9375 -1.5625 C 7.601562 -1.007812 7.128906 -0.554688 6.515625 -0.203125 C 5.898438 0.148438 5.179688 0.328125 4.359375 0.328125 C 3.890625 0.328125 3.320312 0.207031 2.65625 -0.03125 C 2.1875 -0.175781 1.878906 -0.25 1.734375 -0.25 C 1.390625 -0.25 1.082031 -0.0546875 0.8125 0.328125 L 0.25 0.328125 L 1.03125 -4.015625 L 1.578125 -4.015625 C 1.648438 -2.929688 1.867188 -2.03125 2.234375 -1.3125 C 2.609375 -0.601562 3.300781 -0.25 4.3125 -0.25 C 5.019531 -0.25 5.570312 -0.488281 5.96875 -0.96875 C 6.363281 -1.445312 6.5625 -1.945312 6.5625 -2.46875 C 6.5625 -2.84375 6.453125 -3.234375 6.234375 -3.640625 C 6.015625 -4.054688 5.769531 -4.460938 5.5 -4.859375 C 5.226562 -5.253906 5.050781 -5.515625 4.96875 -5.640625 L 4.5625 -6.234375 C 4.09375 -6.890625 3.742188 -7.453125 3.515625 -7.921875 C 3.285156 -8.390625 3.171875 -8.894531 3.171875 -9.4375 C 3.171875 -10.09375 3.34375 -10.640625 3.6875 -11.078125 C 4.03125 -11.523438 4.453125 -11.851562 4.953125 -12.0625 C 5.460938 -12.28125 5.945312 -12.390625 6.40625 -12.390625 Z M 6.40625 -12.390625 "/></g></g></g></g></g><g transform="matrix(1, 0, 0, 1, 56, -0.000000000000001478)"><g clip-path="url(#0d3b146a94)"><g clip-path="url(#876cfbe615)"><g fill="#ffffff" fill-opacity="1"><g transform="translate(0.352437, 24.01315)"><g><path d="M 2.609375 0 L 2.609375 -9.84375 L 0.21875 -9.84375 L 0.21875 -12.28125 L 3.5 -12.28125 L 2.609375 -11.421875 L 2.609375 -12.21875 C 2.609375 -13.957031 3.078125 -15.265625 4.015625 -16.140625 C 4.953125 -17.023438 6.382812 -17.515625 8.3125 -17.609375 L 9.671875 -17.6875 L 9.90625 -15.21875 L 8.453125 -15.15625 C 7.859375 -15.113281 7.363281 -15.003906 6.96875 -14.828125 C 6.582031 -14.660156 6.296875 -14.40625 6.109375 -14.0625 C 5.921875 -13.726562 5.828125 -13.285156 5.828125 -12.734375 L 5.828125 -11.96875 L 5.390625 -12.28125 L 9.296875 -12.28125 L 9.296875 -9.84375 L 5.828125 -9.84375 L 5.828125 0 Z M 2.609375 0 "/></g></g></g></g><g fill="#ffffff" fill-opacity="1"><g transform="translate(8.031525, 24.01315)"><g><path d="M 6.046875 0.25 C 4.617188 0.25 3.546875 -0.132812 2.828125 -0.90625 C 2.117188 -1.675781 1.765625 -2.800781 1.765625 -4.28125 L 1.765625 -17.53125 L 5 -17.53125 L 5 -4.484375 C 5 -4.015625 5.0625 -3.617188 5.1875 -3.296875 C 5.320312 -2.984375 5.519531 -2.742188 5.78125 -2.578125 C 6.050781 -2.421875 6.378906 -2.34375 6.765625 -2.34375 C 6.984375 -2.34375 7.191406 -2.351562 7.390625 -2.375 C 7.585938 -2.394531 7.785156 -2.429688 7.984375 -2.484375 L 8.03125 -0.03125 C 7.695312 0.0507812 7.375 0.117188 7.0625 0.171875 C 6.75 0.222656 6.410156 0.25 6.046875 0.25 Z M 6.046875 0.25 "/></g></g></g><g fill="#ffffff" fill-opacity="1"><g transform="translate(14.219238, 24.01315)"><g><path d="M 7.46875 0.25 C 6.164062 0.25 5.035156 -0.0078125 4.078125 -0.53125 C 3.128906 -1.050781 2.394531 -1.789062 1.875 -2.75 C 1.351562 -3.71875 1.09375 -4.847656 1.09375 -6.140625 C 1.09375 -7.453125 1.351562 -8.582031 1.875 -9.53125 C 2.394531 -10.488281 3.128906 -11.226562 4.078125 -11.75 C 5.035156 -12.269531 6.164062 -12.53125 7.46875 -12.53125 C 8.769531 -12.53125 9.894531 -12.269531 10.84375 -11.75 C 11.789062 -11.226562 12.523438 -10.484375 13.046875 -9.515625 C 13.566406 -8.554688 13.828125 -7.429688 13.828125 -6.140625 C 13.828125 -4.847656 13.566406 -3.71875 13.046875 -2.75 C 12.523438 -1.789062 11.789062 -1.050781 10.84375 -0.53125 C 9.894531 -0.0078125 8.769531 0.25 7.46875 0.25 Z M 7.46875 -2.28125 C 8.445312 -2.28125 9.21875 -2.613281 9.78125 -3.28125 C 10.34375 -3.957031 10.625 -4.921875 10.625 -6.171875 C 10.625 -7.410156 10.34375 -8.359375 9.78125 -9.015625 C 9.21875 -9.671875 8.445312 -10 7.46875 -10 C 6.5 -10 5.726562 -9.671875 5.15625 -9.015625 C 4.582031 -8.359375 4.296875 -7.410156 4.296875 -6.171875 C 4.296875 -4.921875 4.582031 -3.957031 5.15625 -3.28125 C 5.726562 -2.613281 6.5 -2.28125 7.46875 -2.28125 Z M 7.46875 -2.28125 "/></g></g></g><g fill="#ffffff" fill-opacity="1"><g transform="translate(26.89402, 24.01315)"><g><path d="M 4.875 0 L 0.25 -12.28125 L 3.5 -12.28125 L 6.609375 -3.1875 L 6.265625 -3.1875 L 9.609375 -12.28125 L 11.9375 -12.28125 L 15.21875 -3.1875 L 14.921875 -3.1875 L 18.03125 -12.28125 L 21.140625 -12.28125 L 16.5625 0 L 13.78125 0 L 10.25 -9.40625 L 11.140625 -9.40625 L 7.640625 0 Z M 4.875 0 "/></g></g></g></g></g><g transform="matrix(1, 0, 0, 1, 38, 30)"><g clip-path="url(#a57fb90741)"><g clip-path="url(#9c3ddb37db)"><g fill="#ffffff" fill-opacity="1"><g transform="translate(0.642259, 4.837422)"><g><path d="M 1.21875 0 L 0.140625 -3.1875 L 0.75 -3.1875 L 1.5625 -0.65625 L 1.453125 -0.65625 L 2.328125 -3.1875 L 2.765625 -3.1875 L 3.625 -0.65625 L 3.53125 -0.65625 L 4.34375 -3.1875 L 4.9375 -3.1875 L 3.84375 0 L 3.328125 0 L 2.5 -2.390625 L 2.5625 -2.390625 L 1.71875 0 Z M 1.21875 0 "/></g></g></g></g><g fill="#ffffff" fill-opacity="1"><g transform="translate(6.16108, 4.837422)"><g><path d="M 0.390625 0 L 0.390625 -3.1875 L 2.53125 -3.1875 L 2.53125 -2.703125 L 0.96875 -2.703125 L 0.96875 -1.859375 L 2.4375 -1.859375 L 2.4375 -1.375 L 0.96875 -1.375 L 0.96875 -0.484375 L 2.53125 -0.484375 L 2.53125 0 Z M 0.390625 0 "/></g></g></g><g fill="#ffffff" fill-opacity="1"><g transform="translate(9.429054, 4.837422)"><g><path d="M 0.390625 0 L 0.390625 -3.1875 L 1.796875 -3.1875 C 2.128906 -3.1875 2.390625 -3.113281 2.578125 -2.96875 C 2.773438 -2.820312 2.875 -2.617188 2.875 -2.359375 C 2.875 -2.160156 2.820312 -2 2.71875 -1.875 C 2.613281 -1.75 2.472656 -1.664062 2.296875 -1.625 L 2.296875 -1.65625 C 2.429688 -1.632812 2.546875 -1.585938 2.640625 -1.515625 C 2.734375 -1.453125 2.804688 -1.367188 2.859375 -1.265625 C 2.921875 -1.160156 2.953125 -1.035156 2.953125 -0.890625 C 2.953125 -0.703125 2.90625 -0.539062 2.8125 -0.40625 C 2.726562 -0.269531 2.601562 -0.164062 2.4375 -0.09375 C 2.269531 -0.03125 2.070312 0 1.84375 0 Z M 0.96875 -0.46875 L 1.78125 -0.46875 C 1.863281 -0.46875 1.9375 -0.472656 2 -0.484375 C 2.0625 -0.492188 2.113281 -0.507812 2.15625 -0.53125 C 2.207031 -0.5625 2.25 -0.59375 2.28125 -0.625 C 2.3125 -0.664062 2.332031 -0.707031 2.34375 -0.75 C 2.351562 -0.800781 2.359375 -0.859375 2.359375 -0.921875 C 2.359375 -0.984375 2.351562 -1.039062 2.34375 -1.09375 C 2.332031 -1.144531 2.304688 -1.1875 2.265625 -1.21875 C 2.234375 -1.25 2.195312 -1.273438 2.15625 -1.296875 C 2.113281 -1.328125 2.0625 -1.347656 2 -1.359375 C 1.9375 -1.367188 1.863281 -1.375 1.78125 -1.375 L 0.96875 -1.375 Z M 0.96875 -1.84375 L 1.71875 -1.84375 C 1.90625 -1.84375 2.046875 -1.878906 2.140625 -1.953125 C 2.234375 -2.023438 2.28125 -2.132812 2.28125 -2.28125 C 2.28125 -2.425781 2.234375 -2.535156 2.140625 -2.609375 C 2.046875 -2.679688 1.90625 -2.71875 1.71875 -2.71875 L 0.96875 -2.71875 Z M 0.96875 -1.84375 "/></g></g></g><g fill="#ffffff" fill-opacity="1"><g transform="translate(13.09929, 4.837422)"><g/></g></g><g fill="#ffffff" fill-opacity="1"><g transform="translate(14.826021, 4.837422)"><g><path d="M 0.390625 0 L 0.390625 -3.1875 L 1.59375 -3.1875 C 1.945312 -3.1875 2.242188 -3.125 2.484375 -3 C 2.734375 -2.875 2.921875 -2.691406 3.046875 -2.453125 C 3.179688 -2.222656 3.25 -1.9375 3.25 -1.59375 C 3.25 -1.25 3.179688 -0.957031 3.046875 -0.71875 C 2.921875 -0.488281 2.734375 -0.3125 2.484375 -0.1875 C 2.242188 -0.0625 1.945312 0 1.59375 0 Z M 0.984375 -0.5 L 1.5625 -0.5 C 1.914062 -0.5 2.179688 -0.585938 2.359375 -0.765625 C 2.535156 -0.953125 2.625 -1.226562 2.625 -1.59375 C 2.625 -1.957031 2.535156 -2.226562 2.359375 -2.40625 C 2.179688 -2.59375 1.914062 -2.6875 1.5625 -2.6875 L 0.984375 -2.6875 Z M 0.984375 -0.5 "/></g></g></g><g fill="#ffffff" fill-opacity="1"><g transform="translate(18.803602, 4.837422)"><g><path d="M 0.390625 0 L 0.390625 -3.1875 L 2.53125 -3.1875 L 2.53125 -2.703125 L 0.96875 -2.703125 L 0.96875 -1.859375 L 2.4375 -1.859375 L 2.4375 -1.375 L 0.96875 -1.375 L 0.96875 -0.484375 L 2.53125 -0.484375 L 2.53125 0 Z M 0.390625 0 "/></g></g></g><g fill="#ffffff" fill-opacity="1"><g transform="translate(22.026372, 4.837422)"><g><path d="M 1.5 0.046875 C 1.332031 0.046875 1.171875 0.03125 1.015625 0 C 0.859375 -0.0195312 0.710938 -0.0546875 0.578125 -0.109375 C 0.453125 -0.160156 0.335938 -0.222656 0.234375 -0.296875 L 0.421875 -0.765625 C 0.515625 -0.703125 0.617188 -0.644531 0.734375 -0.59375 C 0.847656 -0.550781 0.96875 -0.515625 1.09375 -0.484375 C 1.226562 -0.460938 1.363281 -0.453125 1.5 -0.453125 C 1.726562 -0.453125 1.894531 -0.488281 2 -0.5625 C 2.113281 -0.644531 2.171875 -0.753906 2.171875 -0.890625 C 2.171875 -0.960938 2.15625 -1.019531 2.125 -1.0625 C 2.09375 -1.113281 2.035156 -1.15625 1.953125 -1.1875 C 1.878906 -1.21875 1.78125 -1.242188 1.65625 -1.265625 L 1.15625 -1.375 C 0.863281 -1.425781 0.644531 -1.523438 0.5 -1.671875 C 0.363281 -1.828125 0.296875 -2.023438 0.296875 -2.265625 C 0.296875 -2.453125 0.347656 -2.617188 0.453125 -2.765625 C 0.566406 -2.910156 0.71875 -3.023438 0.90625 -3.109375 C 1.101562 -3.191406 1.328125 -3.234375 1.578125 -3.234375 C 1.722656 -3.234375 1.863281 -3.21875 2 -3.1875 C 2.132812 -3.15625 2.257812 -3.113281 2.375 -3.0625 C 2.488281 -3.007812 2.585938 -2.945312 2.671875 -2.875 L 2.484375 -2.40625 C 2.359375 -2.519531 2.21875 -2.597656 2.0625 -2.640625 C 1.914062 -2.691406 1.75 -2.71875 1.5625 -2.71875 C 1.425781 -2.71875 1.304688 -2.695312 1.203125 -2.65625 C 1.109375 -2.625 1.03125 -2.570312 0.96875 -2.5 C 0.914062 -2.4375 0.890625 -2.359375 0.890625 -2.265625 C 0.890625 -2.160156 0.925781 -2.078125 1 -2.015625 C 1.070312 -1.953125 1.195312 -1.90625 1.375 -1.875 L 1.875 -1.78125 C 2.175781 -1.71875 2.398438 -1.613281 2.546875 -1.46875 C 2.691406 -1.332031 2.765625 -1.148438 2.765625 -0.921875 C 2.765625 -0.734375 2.710938 -0.566406 2.609375 -0.421875 C 2.503906 -0.273438 2.359375 -0.160156 2.171875 -0.078125 C 1.984375 0.00390625 1.757812 0.046875 1.5 0.046875 Z M 1.5 0.046875 "/></g></g></g><g fill="#ffffff" fill-opacity="1"><g transform="translate(25.434463, 4.837422)"><g><path d="M 0.390625 0 L 0.390625 -3.1875 L 0.984375 -3.1875 L 0.984375 0 Z M 0.390625 0 "/></g></g></g><g fill="#ffffff" fill-opacity="1"><g transform="translate(27.247069, 4.837422)"><g><path d="M 1.90625 0.046875 C 1.5625 0.046875 1.265625 -0.0195312 1.015625 -0.15625 C 0.773438 -0.289062 0.59375 -0.476562 0.46875 -0.71875 C 0.34375 -0.957031 0.28125 -1.25 0.28125 -1.59375 C 0.28125 -1.925781 0.34375 -2.210938 0.46875 -2.453125 C 0.59375 -2.703125 0.773438 -2.894531 1.015625 -3.03125 C 1.265625 -3.164062 1.554688 -3.234375 1.890625 -3.234375 C 2.046875 -3.234375 2.191406 -3.21875 2.328125 -3.1875 C 2.472656 -3.15625 2.601562 -3.113281 2.71875 -3.0625 C 2.84375 -3.007812 2.945312 -2.945312 3.03125 -2.875 L 2.84375 -2.40625 C 2.695312 -2.507812 2.546875 -2.582031 2.390625 -2.625 C 2.242188 -2.675781 2.082031 -2.703125 1.90625 -2.703125 C 1.570312 -2.703125 1.316406 -2.609375 1.140625 -2.421875 C 0.972656 -2.234375 0.890625 -1.957031 0.890625 -1.59375 C 0.890625 -1.21875 0.976562 -0.9375 1.15625 -0.75 C 1.332031 -0.5625 1.59375 -0.46875 1.9375 -0.46875 C 2.070312 -0.46875 2.203125 -0.476562 2.328125 -0.5 C 2.453125 -0.519531 2.570312 -0.550781 2.6875 -0.59375 L 2.5625 -0.328125 L 2.5625 -1.296875 L 1.84375 -1.296875 L 1.84375 -1.75 L 3.0625 -1.75 L 3.0625 -0.1875 C 2.96875 -0.144531 2.851562 -0.101562 2.71875 -0.0625 C 2.59375 -0.03125 2.460938 -0.00390625 2.328125 0.015625 C 2.191406 0.0351562 2.050781 0.046875 1.90625 0.046875 Z M 1.90625 0.046875 "/></g></g></g><g fill="#ffffff" fill-opacity="1"><g transform="translate(31.120695, 4.837422)"><g><path d="M 0.390625 0 L 0.390625 -3.1875 L 0.859375 -3.1875 L 2.640625 -0.859375 L 2.5625 -0.859375 L 2.5625 -3.1875 L 3.125 -3.1875 L 3.125 0 L 2.640625 0 L 0.875 -2.328125 L 0.9375 -2.328125 L 0.9375 0 Z M 0.390625 0 "/></g></g></g></g></g></svg>