<svg xmlns="http://www.w3.org/2000/svg" xmlns:xlink="http://www.w3.org/1999/xlink" width="500" zoomAndPan="magnify" viewBox="0 0 375 374.999991" height="500" preserveAspectRatio="xMidYMid meet" version="1.0"><defs><g/><clipPath id="5430ff1d2e"><rect x="0" width="153" y="0" height="89"/></clipPath><clipPath id="890d6b0cdf"><rect x="0" width="160" y="0" height="114"/></clipPath><clipPath id="b83782983c"><path d="M 0.28125 4 L 17 4 L 17 16 L 0.28125 16 Z M 0.28125 4 " clip-rule="nonzero"/></clipPath><clipPath id="7dcf119b93"><rect x="0" width="113" y="0" height="21"/></clipPath></defs><g transform="matrix(1, 0, 0, 1, 28, 139)"><g clip-path="url(#5430ff1d2e)"><g fill="#ffffff" fill-opacity="1"><g transform="translate(0.483836, 62.903175)"><g><path d="M 13.296875 -19.609375 C 16.503906 -24.972656 20.078125 -29.710938 24.015625 -33.828125 C 27.960938 -37.941406 31.566406 -40 34.828125 -40 C 36.578125 -40 37.84375 -39.425781 38.625 -38.28125 C 39.414062 -37.144531 39.8125 -35.820312 39.8125 -34.3125 C 39.8125 -32.03125 39.226562 -28.847656 38.0625 -24.765625 L 35.796875 -17.0625 L 35.96875 -16.890625 C 39.695312 -23.597656 43.601562 -29.125 47.6875 -33.46875 C 51.78125 -37.820312 55.601562 -40 59.15625 -40 C 60.269531 -40 61.335938 -39.546875 62.359375 -38.640625 C 63.378906 -37.734375 63.890625 -36.226562 63.890625 -34.125 C 63.890625 -33.488281 63.800781 -32.671875 63.625 -31.671875 C 63.445312 -30.679688 63.269531 -29.8125 63.09375 -29.0625 L 57.5 -9.453125 C 57.382812 -9.097656 57.179688 -8.394531 56.890625 -7.34375 C 56.597656 -6.300781 56.453125 -5.515625 56.453125 -4.984375 C 56.453125 -3.929688 56.769531 -3.40625 57.40625 -3.40625 C 58.164062 -3.40625 59.203125 -4.101562 60.515625 -5.5 C 61.828125 -6.90625 62.921875 -8.222656 63.796875 -9.453125 L 64.9375 -8.40625 C 63.300781 -5.894531 61.300781 -3.691406 58.9375 -1.796875 C 56.570312 0.0976562 54.515625 1.046875 52.765625 1.046875 C 52.128906 1.046875 51.457031 0.769531 50.75 0.21875 C 50.050781 -0.332031 49.703125 -1.28125 49.703125 -2.625 C 49.703125 -4.3125 50.226562 -7.023438 51.28125 -10.765625 L 55.921875 -27.046875 C 56.617188 -29.378906 56.96875 -31.21875 56.96875 -32.5625 C 56.96875 -33.257812 56.773438 -33.851562 56.390625 -34.34375 C 56.015625 -34.84375 55.535156 -35.09375 54.953125 -35.09375 C 53.085938 -35.09375 51.085938 -34.070312 48.953125 -32.03125 C 46.828125 -29.988281 44.539062 -27.21875 42.09375 -23.71875 C 39.875 -20.5625 37.976562 -17.523438 36.40625 -14.609375 C 34.832031 -11.691406 33.8125 -9.414062 33.34375 -7.78125 C 31.882812 -3.0625 31.097656 -0.46875 30.984375 0 L 24.421875 0 L 31.5 -25.03125 C 31.789062 -25.96875 32.125 -27.207031 32.5 -28.75 C 32.882812 -30.289062 33.078125 -31.5625 33.078125 -32.5625 C 33.078125 -33.3125 32.859375 -33.90625 32.421875 -34.34375 C 31.984375 -34.78125 31.472656 -35 30.890625 -35 C 29.140625 -35 27.039062 -33.921875 24.59375 -31.765625 C 22.144531 -29.609375 19.691406 -26.691406 17.234375 -23.015625 C 15.367188 -20.273438 13.878906 -17.8125 12.765625 -15.625 C 11.660156 -13.4375 10.554688 -10.53125 9.453125 -6.90625 C 8.222656 -2.769531 7.582031 -0.46875 7.53125 0 L 0.78125 0 L 9.359375 -30.015625 C 9.890625 -31.765625 10.15625 -33.050781 10.15625 -33.875 C 10.15625 -35.738281 9.191406 -36.671875 7.265625 -36.671875 C 6.097656 -36.671875 5.132812 -36.550781 4.375 -36.3125 L 4.375 -37.890625 L 17.421875 -40 L 18.984375 -40 L 13.125 -19.78125 Z M 13.296875 -19.609375 "/></g></g></g><g fill="#ffffff" fill-opacity="1"><g transform="translate(61.830466, 62.903175)"><g><path d="M 20.828125 -57.5 C 22.054688 -57.5 23.109375 -57.0625 23.984375 -56.1875 C 24.859375 -55.3125 25.296875 -54.289062 25.296875 -53.125 C 25.296875 -51.894531 24.859375 -50.84375 23.984375 -49.96875 C 23.109375 -49.09375 22.054688 -48.65625 20.828125 -48.65625 C 19.660156 -48.65625 18.640625 -49.09375 17.765625 -49.96875 C 16.890625 -50.84375 16.453125 -51.894531 16.453125 -53.125 C 16.453125 -54.289062 16.890625 -55.3125 17.765625 -56.1875 C 18.640625 -57.0625 19.660156 -57.5 20.828125 -57.5 Z M 12.25 -7.78125 C 11.78125 -6.269531 11.546875 -5.222656 11.546875 -4.640625 C 11.546875 -3.703125 12.046875 -3.234375 13.046875 -3.234375 C 13.742188 -3.234375 14.71875 -3.769531 15.96875 -4.84375 C 17.226562 -5.925781 18.523438 -7.519531 19.859375 -9.625 L 21.265625 -8.75 C 19.335938 -5.769531 17.175781 -3.390625 14.78125 -1.609375 C 12.394531 0.160156 10.207031 1.046875 8.21875 1.046875 C 7.050781 1.046875 6.160156 0.671875 5.546875 -0.078125 C 4.941406 -0.835938 4.640625 -1.863281 4.640625 -3.15625 C 4.640625 -4.082031 4.8125 -5.160156 5.15625 -6.390625 L 12.171875 -30.453125 C 12.578125 -31.910156 12.78125 -32.929688 12.78125 -33.515625 C 12.78125 -34.273438 12.515625 -34.945312 11.984375 -35.53125 C 11.460938 -36.113281 10.675781 -36.40625 9.625 -36.40625 C 9.21875 -36.40625 8.109375 -36.257812 6.296875 -35.96875 L 6.734375 -37.453125 L 20.046875 -40 L 21.53125 -40 Z M 12.25 -7.78125 "/></g></g></g><g fill="#ffffff" fill-opacity="1"><g transform="translate(79.420583, 62.903175)"><g><path d="M 25.375 -40 C 28.175781 -40 30.773438 -39.148438 33.171875 -37.453125 L 44.71875 -37.453125 L 43.3125 -32.640625 L 36.3125 -32.640625 C 36.84375 -31.242188 37.109375 -29.84375 37.109375 -28.4375 C 37.109375 -25.925781 36.363281 -23.519531 34.875 -21.21875 C 33.382812 -18.914062 31.3125 -17.035156 28.65625 -15.578125 C 26 -14.117188 23.007812 -13.332031 19.6875 -13.21875 C 18.113281 -12.6875 16.671875 -12 15.359375 -11.15625 C 14.046875 -10.3125 13.390625 -9.476562 13.390625 -8.65625 C 13.390625 -7.84375 13.914062 -7.21875 14.96875 -6.78125 C 16.019531 -6.34375 18.117188 -5.71875 21.265625 -4.90625 C 21.671875 -4.84375 22.285156 -4.695312 23.109375 -4.46875 C 30.921875 -2.539062 34.828125 0.664062 34.828125 5.15625 C 34.828125 7.550781 33.992188 9.710938 32.328125 11.640625 C 30.671875 13.566406 28.382812 15.097656 25.46875 16.234375 C 22.550781 17.367188 19.285156 17.9375 15.671875 17.9375 C 11.054688 17.9375 7.160156 17.101562 3.984375 15.4375 C 0.804688 13.78125 -0.78125 11.550781 -0.78125 8.75 C -0.78125 7.9375 -0.601562 7.117188 -0.25 6.296875 C 0.09375 5.484375 1.019531 4.359375 2.53125 2.921875 C 4.050781 1.492188 6.390625 -0.207031 9.546875 -2.1875 C 8.140625 -3.125 7.4375 -4.289062 7.4375 -5.6875 C 7.4375 -7.257812 8.109375 -8.597656 9.453125 -9.703125 C 10.796875 -10.816406 12.953125 -12.191406 15.921875 -13.828125 C 13.128906 -14.703125 10.925781 -16.015625 9.3125 -17.765625 C 7.707031 -19.515625 6.90625 -21.703125 6.90625 -24.328125 C 6.90625 -27.242188 7.8125 -29.894531 9.625 -32.28125 C 11.4375 -34.675781 13.769531 -36.5625 16.625 -37.9375 C 19.488281 -39.3125 22.40625 -40 25.375 -40 Z M 14.265625 -22.046875 C 14.265625 -20.585938 14.742188 -19.097656 15.703125 -17.578125 C 16.671875 -16.066406 18.117188 -15.3125 20.046875 -15.3125 C 22.023438 -15.3125 23.757812 -16.210938 25.25 -18.015625 C 26.738281 -19.828125 27.875 -22.03125 28.65625 -24.625 C 29.445312 -27.226562 29.84375 -29.640625 29.84375 -31.859375 C 29.84375 -33.609375 29.421875 -35.035156 28.578125 -36.140625 C 27.734375 -37.253906 26.460938 -37.8125 24.765625 -37.8125 C 22.367188 -37.8125 20.382812 -36.847656 18.8125 -34.921875 C 17.238281 -32.992188 16.085938 -30.773438 15.359375 -28.265625 C 14.628906 -25.753906 14.265625 -23.679688 14.265625 -22.046875 Z M 4.375 8.140625 C 4.375 10.472656 5.566406 12.335938 7.953125 13.734375 C 10.347656 15.140625 13.125 15.84375 16.28125 15.84375 C 18.144531 15.84375 20.097656 15.5625 22.140625 15 C 24.179688 14.445312 25.929688 13.570312 27.390625 12.375 C 28.847656 11.1875 29.578125 9.6875 29.578125 7.875 C 29.578125 6.476562 29.007812 5.296875 27.875 4.328125 C 26.738281 3.367188 25.378906 2.609375 23.796875 2.046875 C 22.222656 1.492188 20.066406 0.867188 17.328125 0.171875 C 14.410156 -0.523438 12.367188 -1.109375 11.203125 -1.578125 C 9.097656 -0.0546875 7.429688 1.429688 6.203125 2.890625 C 4.984375 4.347656 4.375 6.097656 4.375 8.140625 Z M 4.375 8.140625 "/></g></g></g><g fill="#ffffff" fill-opacity="1"><g transform="translate(117.05119, 62.903175)"><g><path d="M 20.65625 -40 C 22.75 -40 24.734375 -39.5 26.609375 -38.5 C 27.660156 -38.039062 28.390625 -37.8125 28.796875 -37.8125 C 29.898438 -37.8125 30.800781 -38.539062 31.5 -40 L 33.078125 -40 L 30.71875 -26.6875 L 29.140625 -26.6875 C 29.140625 -30.476562 28.394531 -33.335938 26.90625 -35.265625 C 25.414062 -37.191406 23.59375 -38.15625 21.4375 -38.15625 C 19.863281 -38.15625 18.566406 -37.660156 17.546875 -36.671875 C 16.523438 -35.679688 16.015625 -34.570312 16.015625 -33.34375 C 16.015625 -31.945312 16.421875 -30.53125 17.234375 -29.09375 C 18.054688 -27.664062 19.34375 -25.785156 21.09375 -23.453125 C 23.070312 -20.890625 24.585938 -18.644531 25.640625 -16.71875 C 26.691406 -14.789062 27.21875 -12.773438 27.21875 -10.671875 C 27.21875 -8.691406 26.675781 -6.8125 25.59375 -5.03125 C 24.519531 -3.25 22.988281 -1.789062 21 -0.65625 C 19.019531 0.476562 16.71875 1.046875 14.09375 1.046875 C 12.570312 1.046875 10.734375 0.664062 8.578125 -0.09375 C 7.054688 -0.550781 6.0625 -0.78125 5.59375 -0.78125 C 4.488281 -0.78125 3.5 -0.171875 2.625 1.046875 L 0.78125 1.046875 L 3.328125 -12.953125 L 5.078125 -12.953125 C 5.304688 -9.453125 6.019531 -6.546875 7.21875 -4.234375 C 8.414062 -1.929688 10.648438 -0.78125 13.921875 -0.78125 C 16.191406 -0.78125 17.96875 -1.550781 19.25 -3.09375 C 20.53125 -4.644531 21.171875 -6.269531 21.171875 -7.96875 C 21.171875 -9.1875 20.820312 -10.453125 20.125 -11.765625 C 19.425781 -13.078125 18.640625 -14.375 17.765625 -15.65625 C 16.890625 -16.945312 16.304688 -17.796875 16.015625 -18.203125 L 14.703125 -20.125 C 13.179688 -22.226562 12.054688 -24.035156 11.328125 -25.546875 C 10.597656 -27.066406 10.234375 -28.703125 10.234375 -30.453125 C 10.234375 -32.554688 10.785156 -34.320312 11.890625 -35.75 C 13.003906 -37.175781 14.378906 -38.238281 16.015625 -38.9375 C 17.648438 -39.644531 19.195312 -40 20.65625 -40 Z M 20.65625 -40 "/></g></g></g></g></g><g transform="matrix(1, 0, 0, 1, 188, 122)"><g clip-path="url(#890d6b0cdf)"><g fill="#ffffff" fill-opacity="1"><g transform="translate(0.626255, 83.273534)"><g><path d="M 8.421875 0 L 8.421875 -31.765625 L 0.71875 -31.765625 L 0.71875 -39.625 L 11.3125 -39.625 L 8.421875 -36.828125 L 8.421875 -39.390625 C 8.421875 -45.003906 9.929688 -49.226562 12.953125 -52.0625 C 15.972656 -54.894531 20.585938 -56.472656 26.796875 -56.796875 L 31.203125 -57.03125 L 31.921875 -49.09375 L 27.28125 -48.859375 C 25.351562 -48.742188 23.757812 -48.40625 22.5 -47.84375 C 21.238281 -47.289062 20.300781 -46.460938 19.6875 -45.359375 C 19.070312 -44.265625 18.765625 -42.835938 18.765625 -41.078125 L 18.765625 -38.578125 L 17.40625 -39.625 L 30 -39.625 L 30 -31.765625 L 18.765625 -31.765625 L 18.765625 0 Z M 8.421875 0 "/></g></g></g><g fill="#ffffff" fill-opacity="1"><g transform="translate(25.397237, 83.273534)"><g><path d="M 19.5 0.796875 C 14.894531 0.796875 11.441406 -0.441406 9.140625 -2.921875 C 6.847656 -5.410156 5.703125 -9.035156 5.703125 -13.796875 L 5.703125 -56.546875 L 16.125 -56.546875 L 16.125 -14.4375 C 16.125 -12.9375 16.335938 -11.675781 16.765625 -10.65625 C 17.191406 -9.644531 17.832031 -8.875 18.6875 -8.34375 C 19.539062 -7.8125 20.582031 -7.546875 21.8125 -7.546875 C 22.507812 -7.546875 23.175781 -7.582031 23.8125 -7.65625 C 24.457031 -7.738281 25.101562 -7.859375 25.75 -8.015625 L 25.90625 -0.078125 C 24.84375 0.191406 23.800781 0.40625 22.78125 0.5625 C 21.769531 0.71875 20.675781 0.796875 19.5 0.796875 Z M 19.5 0.796875 "/></g></g></g><g fill="#ffffff" fill-opacity="1"><g transform="translate(45.357385, 83.273534)"><g><path d="M 24.0625 0.796875 C 19.894531 0.796875 16.269531 -0.0390625 13.1875 -1.71875 C 10.113281 -3.40625 7.734375 -5.800781 6.046875 -8.90625 C 4.367188 -12.007812 3.53125 -15.644531 3.53125 -19.8125 C 3.53125 -24.039062 4.367188 -27.691406 6.046875 -30.765625 C 7.734375 -33.835938 10.113281 -36.21875 13.1875 -37.90625 C 16.269531 -39.59375 19.894531 -40.4375 24.0625 -40.4375 C 28.289062 -40.4375 31.925781 -39.59375 34.96875 -37.90625 C 38.019531 -36.21875 40.390625 -33.820312 42.078125 -30.71875 C 43.765625 -27.625 44.609375 -23.988281 44.609375 -19.8125 C 44.609375 -15.644531 43.765625 -12.007812 42.078125 -8.90625 C 40.390625 -5.800781 38.019531 -3.40625 34.96875 -1.71875 C 31.925781 -0.0390625 28.289062 0.796875 24.0625 0.796875 Z M 24.0625 -7.375 C 27.21875 -7.375 29.703125 -8.457031 31.515625 -10.625 C 33.335938 -12.789062 34.25 -15.878906 34.25 -19.890625 C 34.25 -23.898438 33.335938 -26.960938 31.515625 -29.078125 C 29.703125 -31.191406 27.21875 -32.25 24.0625 -32.25 C 20.957031 -32.25 18.484375 -31.191406 16.640625 -29.078125 C 14.796875 -26.960938 13.875 -23.898438 13.875 -19.890625 C 13.875 -15.878906 14.796875 -12.789062 16.640625 -10.625 C 18.484375 -8.457031 20.957031 -7.375 24.0625 -7.375 Z M 24.0625 -7.375 "/></g></g></g><g fill="#ffffff" fill-opacity="1"><g transform="translate(86.243332, 83.273534)"><g><path d="M 15.71875 0 L 0.796875 -39.625 L 11.3125 -39.625 L 21.34375 -10.265625 L 20.21875 -10.265625 L 30.96875 -39.625 L 38.5 -39.625 L 49.09375 -10.265625 L 48.125 -10.265625 L 58.15625 -39.625 L 68.1875 -39.625 L 53.421875 0 L 44.4375 0 L 33.046875 -30.328125 L 35.9375 -30.328125 L 24.625 0 Z M 15.71875 0 "/></g></g></g></g></g><g transform="matrix(1, 0, 0, 1, 131, 225)"><g clip-path="url(#7dcf119b93)"><g clip-path="url(#b83782983c)"><g fill="#ffffff" fill-opacity="1"><g transform="translate(0.497291, 15.190165)"><g><path d="M 3.921875 0 L 0.4375 -10.28125 L 2.4375 -10.28125 L 5.046875 -2.125 L 4.671875 -2.125 L 7.5 -10.28125 L 8.953125 -10.28125 L 11.6875 -2.125 L 11.390625 -2.125 L 14.03125 -10.28125 L 15.921875 -10.28125 L 12.421875 0 L 10.765625 0 L 8.09375 -7.71875 L 8.28125 -7.71875 L 5.546875 0 Z M 3.921875 0 "/></g></g></g></g><g fill="#ffffff" fill-opacity="1"><g transform="translate(18.299744, 15.190165)"><g><path d="M 1.234375 0 L 1.234375 -10.28125 L 8.1875 -10.28125 L 8.1875 -8.71875 L 3.109375 -8.71875 L 3.109375 -5.984375 L 7.875 -5.984375 L 7.875 -4.4375 L 3.109375 -4.4375 L 3.109375 -1.5625 L 8.1875 -1.5625 L 8.1875 0 Z M 1.234375 0 "/></g></g></g><g fill="#ffffff" fill-opacity="1"><g transform="translate(28.841483, 15.190165)"><g><path d="M 1.234375 0 L 1.234375 -10.28125 L 5.78125 -10.28125 C 6.882812 -10.28125 7.738281 -10.046875 8.34375 -9.578125 C 8.945312 -9.109375 9.25 -8.453125 9.25 -7.609375 C 9.25 -6.984375 9.082031 -6.46875 8.75 -6.0625 C 8.414062 -5.65625 7.972656 -5.378906 7.421875 -5.234375 L 7.421875 -5.34375 C 7.835938 -5.28125 8.203125 -5.140625 8.515625 -4.921875 C 8.835938 -4.710938 9.082031 -4.4375 9.25 -4.09375 C 9.425781 -3.757812 9.515625 -3.351562 9.515625 -2.875 C 9.515625 -2.269531 9.375 -1.75 9.09375 -1.3125 C 8.8125 -0.882812 8.40625 -0.554688 7.875 -0.328125 C 7.34375 -0.109375 6.703125 0 5.953125 0 Z M 3.109375 -1.5 L 5.765625 -1.5 C 6.023438 -1.5 6.253906 -1.519531 6.453125 -1.5625 C 6.648438 -1.601562 6.820312 -1.660156 6.96875 -1.734375 C 7.125 -1.804688 7.25 -1.90625 7.34375 -2.03125 C 7.445312 -2.15625 7.519531 -2.296875 7.5625 -2.453125 C 7.613281 -2.617188 7.640625 -2.789062 7.640625 -2.96875 C 7.640625 -3.1875 7.613281 -3.375 7.5625 -3.53125 C 7.519531 -3.6875 7.445312 -3.820312 7.34375 -3.9375 C 7.238281 -4.050781 7.113281 -4.144531 6.96875 -4.21875 C 6.820312 -4.300781 6.644531 -4.359375 6.4375 -4.390625 C 6.238281 -4.429688 6.015625 -4.453125 5.765625 -4.453125 L 3.109375 -4.453125 Z M 3.109375 -5.953125 L 5.53125 -5.953125 C 6.144531 -5.953125 6.601562 -6.066406 6.90625 -6.296875 C 7.21875 -6.535156 7.375 -6.894531 7.375 -7.375 C 7.375 -7.84375 7.222656 -8.191406 6.921875 -8.421875 C 6.617188 -8.660156 6.15625 -8.78125 5.53125 -8.78125 L 3.109375 -8.78125 Z M 3.109375 -5.953125 "/></g></g></g><g fill="#ffffff" fill-opacity="1"><g transform="translate(40.680825, 15.190165)"><g/></g></g><g fill="#ffffff" fill-opacity="1"><g transform="translate(46.250861, 15.190165)"><g><path d="M 1.234375 0 L 1.234375 -10.28125 L 5.140625 -10.28125 C 6.285156 -10.28125 7.253906 -10.078125 8.046875 -9.671875 C 8.847656 -9.273438 9.457031 -8.695312 9.875 -7.9375 C 10.289062 -7.175781 10.5 -6.242188 10.5 -5.140625 C 10.5 -4.046875 10.289062 -3.113281 9.875 -2.34375 C 9.457031 -1.582031 8.847656 -1 8.046875 -0.59375 C 7.253906 -0.195312 6.285156 0 5.140625 0 Z M 3.15625 -1.609375 L 5.03125 -1.609375 C 6.175781 -1.609375 7.039062 -1.898438 7.625 -2.484375 C 8.207031 -3.078125 8.5 -3.960938 8.5 -5.140625 C 8.5 -6.328125 8.207031 -7.210938 7.625 -7.796875 C 7.039062 -8.378906 6.175781 -8.671875 5.03125 -8.671875 L 3.15625 -8.671875 Z M 3.15625 -1.609375 "/></g></g></g><g fill="#ffffff" fill-opacity="1"><g transform="translate(59.081629, 15.190165)"><g><path d="M 1.234375 0 L 1.234375 -10.28125 L 8.1875 -10.28125 L 8.1875 -8.71875 L 3.109375 -8.71875 L 3.109375 -5.984375 L 7.875 -5.984375 L 7.875 -4.4375 L 3.109375 -4.4375 L 3.109375 -1.5625 L 8.1875 -1.5625 L 8.1875 0 Z M 1.234375 0 "/></g></g></g><g fill="#ffffff" fill-opacity="1"><g transform="translate(69.477548, 15.190165)"><g><path d="M 4.859375 0.140625 C 4.304688 0.140625 3.773438 0.0976562 3.265625 0.015625 C 2.753906 -0.0664062 2.285156 -0.191406 1.859375 -0.359375 C 1.441406 -0.523438 1.078125 -0.726562 0.765625 -0.96875 L 1.359375 -2.5 C 1.679688 -2.269531 2.023438 -2.078125 2.390625 -1.921875 C 2.753906 -1.773438 3.144531 -1.664062 3.5625 -1.59375 C 3.976562 -1.519531 4.410156 -1.484375 4.859375 -1.484375 C 5.597656 -1.484375 6.144531 -1.609375 6.5 -1.859375 C 6.851562 -2.109375 7.03125 -2.445312 7.03125 -2.875 C 7.03125 -3.101562 6.972656 -3.289062 6.859375 -3.4375 C 6.753906 -3.59375 6.578125 -3.722656 6.328125 -3.828125 C 6.085938 -3.941406 5.765625 -4.035156 5.359375 -4.109375 L 3.71875 -4.4375 C 2.769531 -4.613281 2.070312 -4.941406 1.625 -5.421875 C 1.1875 -5.910156 0.96875 -6.53125 0.96875 -7.28125 C 0.96875 -7.914062 1.140625 -8.46875 1.484375 -8.9375 C 1.835938 -9.414062 2.320312 -9.78125 2.9375 -10.03125 C 3.550781 -10.289062 4.265625 -10.421875 5.078125 -10.421875 C 5.546875 -10.421875 6 -10.375 6.4375 -10.28125 C 6.875 -10.195312 7.273438 -10.066406 7.640625 -9.890625 C 8.015625 -9.722656 8.34375 -9.515625 8.625 -9.265625 L 8.015625 -7.78125 C 7.609375 -8.132812 7.160156 -8.390625 6.671875 -8.546875 C 6.179688 -8.710938 5.644531 -8.796875 5.0625 -8.796875 C 4.613281 -8.796875 4.222656 -8.734375 3.890625 -8.609375 C 3.566406 -8.492188 3.316406 -8.328125 3.140625 -8.109375 C 2.960938 -7.890625 2.875 -7.628906 2.875 -7.328125 C 2.875 -6.984375 2.988281 -6.710938 3.21875 -6.515625 C 3.445312 -6.316406 3.847656 -6.160156 4.421875 -6.046875 L 6.046875 -5.734375 C 7.015625 -5.535156 7.738281 -5.210938 8.21875 -4.765625 C 8.695312 -4.316406 8.9375 -3.722656 8.9375 -2.984375 C 8.9375 -2.367188 8.769531 -1.820312 8.4375 -1.34375 C 8.101562 -0.875 7.628906 -0.507812 7.015625 -0.25 C 6.398438 0.0078125 5.679688 0.140625 4.859375 0.140625 Z M 4.859375 0.140625 "/></g></g></g><g fill="#ffffff" fill-opacity="1"><g transform="translate(80.471266, 15.190165)"><g><path d="M 1.234375 0 L 1.234375 -10.28125 L 3.15625 -10.28125 L 3.15625 0 Z M 1.234375 0 "/></g></g></g><g fill="#ffffff" fill-opacity="1"><g transform="translate(86.31832, 15.190165)"><g><path d="M 6.15625 0.140625 C 5.03125 0.140625 4.078125 -0.0703125 3.296875 -0.5 C 2.515625 -0.925781 1.914062 -1.53125 1.5 -2.3125 C 1.09375 -3.101562 0.890625 -4.039062 0.890625 -5.125 C 0.890625 -6.21875 1.097656 -7.160156 1.515625 -7.953125 C 1.929688 -8.742188 2.53125 -9.351562 3.3125 -9.78125 C 4.09375 -10.207031 5.03125 -10.421875 6.125 -10.421875 C 6.613281 -10.421875 7.085938 -10.375 7.546875 -10.28125 C 8.003906 -10.1875 8.425781 -10.054688 8.8125 -9.890625 C 9.195312 -9.722656 9.523438 -9.507812 9.796875 -9.25 L 9.171875 -7.765625 C 8.703125 -8.117188 8.222656 -8.367188 7.734375 -8.515625 C 7.253906 -8.671875 6.722656 -8.75 6.140625 -8.75 C 5.085938 -8.75 4.28125 -8.4375 3.71875 -7.8125 C 3.15625 -7.195312 2.875 -6.300781 2.875 -5.125 C 2.875 -3.925781 3.160156 -3.019531 3.734375 -2.40625 C 4.304688 -1.800781 5.148438 -1.5 6.265625 -1.5 C 6.703125 -1.5 7.125 -1.535156 7.53125 -1.609375 C 7.9375 -1.679688 8.320312 -1.785156 8.6875 -1.921875 L 8.265625 -1.0625 L 8.265625 -4.171875 L 5.9375 -4.171875 L 5.9375 -5.65625 L 9.90625 -5.65625 L 9.90625 -0.609375 C 9.59375 -0.453125 9.226562 -0.316406 8.8125 -0.203125 C 8.394531 -0.0976562 7.960938 -0.015625 7.515625 0.046875 C 7.066406 0.109375 6.613281 0.140625 6.15625 0.140625 Z M 6.15625 0.140625 "/></g></g></g><g fill="#ffffff" fill-opacity="1"><g transform="translate(98.81375, 15.190165)"><g><path d="M 1.234375 0 L 1.234375 -10.28125 L 2.765625 -10.28125 L 8.515625 -2.75 L 8.28125 -2.75 L 8.28125 -10.28125 L 10.109375 -10.28125 L 10.109375 0 L 8.53125 0 L 2.84375 -7.5 L 3.046875 -7.5 L 3.046875 0 Z M 1.234375 0 "/></g></g></g></g></g></svg>